<svg width="98" height="98" viewBox="0 0 98 98" fill="none" xmlns="http://www.w3.org/2000/svg">
<path fill-rule="evenodd" clip-rule="evenodd" d="M0.721076 0.378601H96.9605C97.2615 0.378601 97.5038 0.620807 97.5038 0.921663V97.271C97.5038 97.5719 97.2615 97.8141 96.9605 97.8141H0.721076C0.420065 97.8141 0.177734 97.5719 0.177734 97.271V0.921663C0.177734 0.620807 0.420065 0.378601 0.721076 0.378601Z" fill="#EB1C2D"/>
<path d="M30.9675 17.2958L29.1396 12.3054V17.2958H27.9619V9.08064H29.0783L30.8939 14.0588V9.08064H32.0716V17.2958H30.9675Z" fill="white"/>
<path d="M33.3401 9.85142C33.5282 9.58984 33.7654 9.38547 34.0517 9.23833C34.3461 9.08303 34.6487 9.00537 34.9595 9.00537C35.2621 9.00537 35.5442 9.06668 35.8059 9.18929C36.0758 9.31191 36.3007 9.47948 36.4807 9.69201C36.6606 9.90454 36.7833 10.1252 36.8487 10.3541C36.9141 10.5748 36.9468 10.816 36.9468 11.0776V15.2587C36.9468 15.5039 36.9223 15.7206 36.8732 15.9086C36.8323 16.0966 36.7342 16.305 36.5788 16.5339C36.4316 16.7628 36.2149 16.959 35.9286 17.1224C35.6505 17.2859 35.3398 17.3677 34.9963 17.3677C34.8 17.3677 34.6119 17.3432 34.432 17.2941C34.252 17.2369 34.0844 17.1633 33.929 17.0734C33.7736 16.9835 33.6346 16.8813 33.5119 16.7669C33.3974 16.6524 33.3074 16.5339 33.242 16.4113C33.1193 16.1579 33.0457 15.9535 33.0212 15.7982C32.9966 15.6429 32.9844 15.4631 32.9844 15.2587V11.0776C32.9844 10.8323 33.0089 10.6157 33.058 10.4277C33.1152 10.2315 33.2093 10.0394 33.3401 9.85142ZM35.6219 10.5013C35.4665 10.2724 35.2539 10.1579 34.984 10.1579C34.845 10.1579 34.7059 10.1988 34.5669 10.2806C34.436 10.3541 34.342 10.44 34.2847 10.538C34.2357 10.6361 34.203 10.7342 34.1866 10.8323C34.1702 10.9304 34.1621 11.0122 34.1621 11.0776V15.2587C34.1621 15.2996 34.1621 15.3445 34.1621 15.3936C34.1621 15.4344 34.1662 15.4794 34.1743 15.5285C34.1825 15.6102 34.2479 15.7451 34.3706 15.9331C34.4933 16.1047 34.6978 16.1906 34.984 16.1906C35.1312 16.1906 35.2621 16.1579 35.3766 16.0925C35.4992 16.0189 35.5851 15.9372 35.6342 15.8473C35.6914 15.7492 35.7282 15.6593 35.7446 15.5775C35.7609 15.4958 35.7691 15.3895 35.7691 15.2587V11.0776C35.7691 10.9141 35.7609 10.7996 35.7446 10.7342C35.7364 10.6688 35.6955 10.5912 35.6219 10.5013H35.6219Z" fill="white"/>
<path d="M27.9619 28.623V20.4078H29.8879H29.9125C30.1578 20.4078 30.3909 20.461 30.6117 20.5672C30.8326 20.6653 31.0288 20.7961 31.2006 20.9596C31.3723 21.1231 31.5073 21.3111 31.6054 21.5236C31.7117 21.728 31.769 21.9405 31.7772 22.1612V23.3506V23.4732C31.7772 23.743 31.724 23.9964 31.6177 24.2334C31.5196 24.4623 31.3846 24.6626 31.2129 24.8342C31.0411 25.0059 30.8366 25.1408 30.5995 25.2389C30.3705 25.3369 30.1251 25.386 29.8634 25.386H29.753H29.1396V28.623H27.9619ZM30.4523 24.0372C30.5259 23.9637 30.5708 23.886 30.5872 23.8043C30.6117 23.7225 30.624 23.6203 30.624 23.4977V22.2838C30.624 22.055 30.5545 21.867 30.4155 21.7198C30.2764 21.5645 30.0883 21.4868 29.8511 21.4868H29.1396V24.2702H29.753C29.9166 24.2702 30.0474 24.2579 30.1456 24.2334C30.2519 24.2007 30.3541 24.1353 30.4523 24.0372Z" fill="white"/>
<path d="M33.1585 21.1803C33.3466 20.9187 33.5838 20.7144 33.87 20.5672C34.1644 20.4119 34.467 20.3342 34.7778 20.3342C35.0804 20.3342 35.3626 20.3956 35.6243 20.5182C35.8942 20.6408 36.1191 20.8084 36.299 21.0209C36.4789 21.2334 36.6016 21.4541 36.6671 21.683C36.7325 21.9037 36.7652 22.1449 36.7652 22.4064V26.5876C36.7652 26.8328 36.7407 27.0494 36.6916 27.2374C36.6507 27.4255 36.5526 27.6339 36.3972 27.8628C36.2499 28.0917 36.0332 28.2879 35.747 28.4513C35.4689 28.6148 35.1581 28.6966 34.8146 28.6966C34.6183 28.6966 34.4302 28.672 34.2503 28.623C34.0704 28.5658 33.9027 28.4922 33.7473 28.4023C33.592 28.3124 33.4529 28.2102 33.3302 28.0957C33.2157 27.9813 33.1258 27.8628 33.0604 27.7402C32.9377 27.4868 32.8641 27.2824 32.8395 27.1271C32.815 26.9718 32.8027 26.792 32.8027 26.5876V22.4064C32.8027 22.1612 32.8273 21.9446 32.8763 21.7566C32.9336 21.5604 33.0276 21.3683 33.1585 21.1803ZM35.4403 21.8301C35.2849 21.6013 35.0723 21.4868 34.8024 21.4868C34.6633 21.4868 34.5243 21.5277 34.3853 21.6094C34.2544 21.683 34.1604 21.7688 34.1031 21.8669C34.054 21.965 34.0213 22.0631 34.005 22.1612C33.9886 22.2593 33.9804 22.3411 33.9804 22.4064V26.5876C33.9804 26.6285 33.9804 26.6734 33.9804 26.7225C33.9804 26.7633 33.9845 26.8083 33.9927 26.8574C34.0009 26.9391 34.0663 27.074 34.189 27.262C34.3117 27.4336 34.5161 27.5195 34.8024 27.5195C34.9496 27.5195 35.0804 27.4868 35.1949 27.4214C35.3176 27.3478 35.4035 27.2661 35.4526 27.1761C35.5098 27.0781 35.5466 26.9881 35.563 26.9064C35.5793 26.8246 35.5875 26.7184 35.5875 26.5876V22.4064C35.5875 22.243 35.5793 22.1285 35.563 22.0631C35.5548 21.9977 35.5139 21.9201 35.4403 21.8301Z" fill="white"/>
<path d="M39.0606 28.623L37.3799 20.4078H38.6066L39.5635 26.1094L40.5327 20.4078H41.784L40.0665 28.623H39.0606Z" fill="white"/>
<path d="M46.0179 27.4459V28.623H42.4971V20.4078H46.0179V21.4868H43.6625V23.9146H45.7235V25.0304H43.6625V27.4459H46.0179Z" fill="white"/>
<path d="M46.5742 28.623V20.4078H48.6352C49.175 20.4078 49.6289 20.5958 49.9969 20.9719C50.3731 21.3479 50.5612 21.8097 50.5612 22.3574V23.1176C50.5612 23.8778 50.2382 24.4582 49.5921 24.8587L50.8434 28.623H49.5921L48.488 25.104H47.7519V28.623H46.5742ZM49.1872 23.8043C49.2608 23.7144 49.3099 23.6122 49.3344 23.4977C49.3672 23.3833 49.3835 23.2566 49.3835 23.1176V22.3574C49.3835 22.104 49.314 21.8996 49.175 21.7443C49.036 21.5809 48.8397 21.4991 48.5861 21.4991H47.7519V24.0618H48.5739C48.8192 24.0618 49.0237 23.9759 49.1873 23.8043H49.1872Z" fill="white"/>
<path d="M52.2388 28.623V21.4991H50.8525V20.4078H54.815V21.4991H53.4042V28.623H52.2388Z" fill="white"/>
<path d="M56.5391 28.623V25.0917L54.9443 20.4078H56.1711L57.128 23.6203L58.0971 20.4078H59.3362L57.7046 25.0917V28.623H56.5391Z" fill="white"/>
<path d="M14.1266 28.249V11.5253L11.3086 13.6378V10.6451L14.1266 8.59129H16.9154V28.249H14.1266Z" fill="white"/>
<path fill-rule="evenodd" clip-rule="evenodd" d="M21.1964 46.9518C21.1964 47.6693 20.9112 48.3574 20.4037 48.8647C19.8961 49.372 19.2076 49.657 18.4898 49.657C17.772 49.657 17.0835 49.372 16.576 48.8647C16.0684 48.3574 15.7832 47.6693 15.7832 46.9518C15.7832 46.5965 15.8532 46.2448 15.9892 45.9166C16.1253 45.5883 16.3246 45.2901 16.5759 45.0389C16.8273 44.7877 17.1257 44.5885 17.454 44.4525C17.7824 44.3166 18.1344 44.2466 18.4898 44.2466C18.8452 44.2466 19.1972 44.3166 19.5256 44.4525C19.854 44.5885 20.1523 44.7877 20.4037 45.0389C20.655 45.2901 20.8544 45.5883 20.9904 45.9166C21.1264 46.2448 21.1964 46.5965 21.1964 46.9518Z" fill="white"/>
<path fill-rule="evenodd" clip-rule="evenodd" d="M44.1173 48.4495C44.1173 49.167 43.8322 49.855 43.3246 50.3624C42.817 50.8697 42.1285 51.1547 41.4107 51.1547C40.6929 51.1547 40.0044 50.8697 39.4968 50.3624C38.9893 49.855 38.7041 49.167 38.7041 48.4495C38.7041 47.732 38.9893 47.0439 39.4968 46.5366C40.0044 46.0293 40.6929 45.7443 41.4107 45.7443C41.7661 45.7443 42.1181 45.8142 42.4465 45.9502C42.7749 46.0861 43.0732 46.2854 43.3246 46.5366C43.5759 46.7878 43.7753 47.086 43.9113 47.4142C44.0473 47.7425 44.1173 48.0942 44.1173 48.4495Z" fill="white"/>
<path fill-rule="evenodd" clip-rule="evenodd" d="M59.295 48.4495C59.295 49.167 59.0099 49.855 58.5023 50.3624C57.9947 50.8697 57.3063 51.1547 56.5884 51.1547C55.8706 51.1547 55.1822 50.8697 54.6746 50.3624C54.167 49.855 53.8818 49.167 53.8818 48.4495C53.8818 47.732 54.167 47.0439 54.6746 46.5366C55.1822 46.0293 55.8706 45.7443 56.5884 45.7443C56.9439 45.7443 57.2958 45.8142 57.6242 45.9502C57.9526 46.0861 58.251 46.2854 58.5023 46.5366C58.7536 46.7878 58.953 47.086 59.089 47.4142C59.225 47.7425 59.295 48.0942 59.295 48.4495Z" fill="white"/>
<path fill-rule="evenodd" clip-rule="evenodd" d="M80.5548 47.0143C80.5548 47.7317 80.2696 48.4198 79.7621 48.9271C79.2545 49.4345 78.566 49.7195 77.8482 49.7195C77.1304 49.7195 76.4419 49.4345 75.9343 48.9271C75.4268 48.4198 75.1416 47.7317 75.1416 47.0143C75.1416 46.659 75.2116 46.3072 75.3476 45.979C75.4836 45.6508 75.683 45.3526 75.9343 45.1014C76.1857 44.8502 76.4841 44.6509 76.8124 44.515C77.1408 44.379 77.4928 44.309 77.8482 44.309C78.566 44.309 79.2545 44.594 79.7621 45.1014C80.2696 45.6087 80.5548 46.2968 80.5548 47.0143Z" fill="white"/>
<path fill-rule="evenodd" clip-rule="evenodd" d="M31.523 60.5612C31.523 61.1352 31.2948 61.6856 30.8888 62.0915C30.4827 62.4973 29.9319 62.7254 29.3577 62.7254C28.7834 62.7254 28.2327 62.4973 27.8266 62.0915C27.4205 61.6856 27.1924 61.1352 27.1924 60.5612C27.1924 60.277 27.2484 59.9956 27.3572 59.733C27.466 59.4704 27.6255 59.2319 27.8266 59.0309C28.0276 58.8299 28.2663 58.6705 28.529 58.5617C28.7918 58.453 29.0733 58.397 29.3577 58.397C29.642 58.397 29.9236 58.453 30.1863 58.5617C30.449 58.6705 30.6877 58.8299 30.8888 59.0309C31.0898 59.2319 31.2493 59.4704 31.3581 59.733C31.467 59.9956 31.523 60.277 31.523 60.5612Z" fill="white"/>
<path fill-rule="evenodd" clip-rule="evenodd" d="M69.8589 60.5612C69.8589 60.8454 69.8029 61.1268 69.6941 61.3894C69.5853 61.652 69.4258 61.8905 69.2247 62.0915C69.0236 62.2925 68.7849 62.4519 68.5222 62.5606C68.2595 62.6694 67.978 62.7254 67.6936 62.7254C67.1193 62.7254 66.5686 62.4973 66.1625 62.0915C65.7565 61.6856 65.5283 61.1352 65.5283 60.5612C65.5283 60.277 65.5843 59.9956 65.6931 59.733C65.802 59.4704 65.9615 59.2319 66.1625 59.0309C66.3636 58.8299 66.6023 58.6705 66.865 58.5618C67.1277 58.453 67.4093 58.397 67.6936 58.397C67.978 58.397 68.2595 58.453 68.5222 58.5617C68.7849 58.6705 69.0236 58.8299 69.2247 59.0309C69.4258 59.2319 69.5853 59.4704 69.6941 59.733C69.8029 59.9956 69.8589 60.277 69.8589 60.5612Z" fill="white"/>
<path fill-rule="evenodd" clip-rule="evenodd" d="M77.3065 63.5369V74.6075C77.3065 76.5017 74.5166 76.5102 74.5166 74.6075V55.2132C74.5166 54.5119 73.5589 54.454 73.5589 55.2132V61.7473C73.5589 63.293 71.5186 63.3579 71.5186 61.7473V53.7981C71.5186 52.1709 72.7507 50.7599 74.5583 50.7599H81.1374C82.945 50.7599 84.1771 52.1709 84.1771 53.7981V61.7473C84.1771 63.3579 82.1368 63.293 82.1368 61.7473V55.2132C82.1368 54.454 81.179 54.5119 81.179 55.2132V74.6075C81.179 76.5102 78.3892 76.5017 78.3892 74.6075V63.5369C78.3892 62.9241 77.3065 62.9034 77.3065 63.5369Z" fill="white"/>
<path fill-rule="evenodd" clip-rule="evenodd" d="M15.1109 50.7601C13.3034 50.7601 12.0714 52.1709 12.0714 53.7981V61.7471C12.0714 62.2933 12.3067 62.6423 12.6169 62.8107L10.1563 75.1063C10.0119 75.8276 10.9773 75.9852 11.1048 75.2859L13.3678 62.8825C13.7702 62.7583 14.111 62.3781 14.111 61.7471V55.2131C14.111 54.454 15.0686 54.5119 15.0686 55.2131V74.6073C15.0686 76.5099 17.8591 76.5014 17.8591 74.6073V63.5368C17.8591 62.9033 18.9411 62.924 18.9411 63.5368V74.6073C18.9411 76.5014 21.7317 76.5099 21.7317 74.6073V55.2131C21.7317 54.5119 22.6892 54.454 22.6892 55.2131V61.7471C22.6892 63.2928 24.7288 63.3577 24.7288 61.7471V53.7981C24.7288 52.1709 23.4969 50.7601 21.6893 50.7601H15.1109Z" fill="white"/>
<path fill-rule="evenodd" clip-rule="evenodd" d="M40.9308 66.8449V74.6824C40.9308 76.6233 38.2209 76.5914 38.2209 74.6824V66.8449H35.6236L38.5672 56.4035C38.7002 55.9316 37.9245 55.5819 37.7303 56.2016L35.9411 61.9127C35.518 63.2631 33.7041 62.7839 34.1807 61.2204L36.4317 53.8364C36.6887 52.9932 37.5492 52.3366 38.4806 52.3366H44.2251C45.1565 52.3366 46.017 52.9932 46.274 53.8364L48.525 61.2204C49.0016 62.7839 47.1877 63.2631 46.7646 61.9127L44.9754 56.2016C44.7812 55.5819 44.0055 55.9316 44.1385 56.4035L47.0821 66.8449H44.4848V74.6824C44.4848 76.5914 41.7749 76.6233 41.7749 74.6824V66.8449H40.9308Z" fill="white"/>
<path fill-rule="evenodd" clip-rule="evenodd" d="M56.1944 66.8449V74.6824C56.1944 76.6233 53.4846 76.5914 53.4846 74.6824V66.8449H50.8873L53.8309 56.4035C53.9639 55.9316 53.1881 55.5819 52.994 56.2016L51.2047 61.9127C50.7817 63.2631 48.9678 62.7839 49.4444 61.2204L51.6953 53.8364C51.9524 52.9932 52.8128 52.3366 53.7443 52.3366H59.4887C60.4202 52.3366 61.2806 52.9932 61.5377 53.8364L63.7886 61.2204C64.2652 62.7839 62.4513 63.2631 62.0283 61.9127L60.239 56.2016C60.0449 55.5819 59.2691 55.9316 59.4022 56.4035L62.3457 66.8449H59.7485V74.6824C59.7485 76.5914 57.0386 76.6233 57.0386 74.6824V66.8449H56.1944Z" fill="white"/>
<path fill-rule="evenodd" clip-rule="evenodd" d="M68.2148 71.6041V74.8634C68.2148 76.2475 70.1195 76.4207 70.1195 74.8634V67.0901C70.1195 66.6781 70.5611 66.6659 70.7111 67.0613L71.7087 69.6921C72.0485 70.588 73.0933 70.2065 72.7187 69.2882L70.7399 64.4365C70.5683 64.0156 70.149 63.6721 69.5856 63.6721H65.882C65.3186 63.6721 64.8993 64.0156 64.7277 64.4365L62.7489 69.2882C62.3743 70.2065 63.4191 70.588 63.7589 69.6921L64.7565 67.0613C64.9065 66.6659 65.3481 66.6781 65.3481 67.0901V74.8634C65.3481 76.4207 67.2528 76.2475 67.2528 74.8634V71.6041C67.2528 71.026 68.2148 70.9849 68.2148 71.6041Z" fill="white"/>
<path fill-rule="evenodd" clip-rule="evenodd" d="M28.9661 71.8023V75.1321C28.9661 76.3282 27.2235 76.5302 27.2235 75.1321V71.4694H26.019L27.0697 67.653C27.2503 66.9969 27.1115 66.3272 26.7878 65.7576L24.9684 62.556C24.423 61.5963 25.7502 61.0621 26.1728 61.7363L27.5054 63.8622C27.7023 64.1764 27.9467 64.144 28.2485 64.144H30.7331C31.0349 64.144 31.2793 64.1764 31.4762 63.8622L32.8088 61.7363C33.2314 61.0621 34.5586 61.5963 34.0132 62.556L32.1938 65.7576C31.8701 66.3272 31.7312 66.9969 31.9119 67.653L32.9625 71.4694H31.7581V75.1321C31.7581 76.5302 30.0155 76.3282 30.0155 75.1321V71.8023C30.0155 71.05 28.9661 71.0707 28.9661 71.8023Z" fill="white"/>
</svg>
