<svg width="99" height="99" viewBox="0 0 99 99" fill="none" xmlns="http://www.w3.org/2000/svg">
<path fill-rule="evenodd" clip-rule="evenodd" d="M1.53551 0.998016H97.7749C98.0759 0.998016 98.3182 1.24022 98.3182 1.54108V97.8904C98.3182 98.1913 98.0759 98.4335 97.7749 98.4335H1.53551C1.2345 98.4335 0.992188 98.1913 0.992188 97.8904V1.54108C0.992188 1.24022 1.2345 0.998016 1.53551 0.998016Z" fill="#CF8D2A"/>
<path d="M32.3115 17.5734V9.35818H34.3724C34.9122 9.35818 35.3661 9.54618 35.7341 9.9222C36.1103 10.2982 36.2984 10.7601 36.2984 11.3078V12.068C36.2984 12.8282 35.9754 13.4086 35.3293 13.8091L36.5806 17.5734H35.3293L34.2252 14.0543H33.4892V17.5734H32.3115ZM34.9245 12.7546C34.9981 12.6647 35.0471 12.5625 35.0717 12.4481C35.1044 12.3336 35.1208 12.2069 35.1208 12.068V11.3078C35.1208 11.0544 35.0512 10.85 34.9122 10.6947C34.7732 10.5312 34.5769 10.4494 34.3234 10.4494H33.4892V13.0121H34.3111C34.5565 13.0121 34.7609 12.9263 34.9245 12.7546H34.9245Z" fill="white"/>
<path d="M40.4182 16.3963V17.5734H36.8975V9.35818H40.4182V10.4372H38.0628V12.865H40.1238V13.9808H38.0628V16.3963H40.4182Z" fill="white"/>
<path d="M41.7505 15.5257C41.7505 15.6075 41.7505 15.6769 41.7505 15.7341C41.7505 15.7914 41.7546 15.8404 41.7628 15.8813C41.7792 15.963 41.8405 16.0816 41.9469 16.2369C42.0614 16.4004 42.2658 16.4821 42.5602 16.4821C42.7238 16.4821 42.8751 16.4494 43.0141 16.384C43.1531 16.3104 43.2554 16.2164 43.3208 16.102C43.3699 16.0121 43.3985 15.9263 43.4067 15.8445C43.423 15.7628 43.4312 15.6892 43.4312 15.6238V15.5134V14.9372V14.8268C43.4312 14.647 43.3985 14.508 43.333 14.4099C43.2676 14.3036 43.1204 14.1851 42.8914 14.0543C42.736 13.9726 42.458 13.8581 42.0572 13.711C41.6565 13.5639 41.3212 13.3309 41.0513 13.0121C40.7814 12.6933 40.6465 12.2601 40.6465 11.7124V11.3446C40.6465 10.7805 40.8346 10.2982 41.2108 9.8977C41.5951 9.48899 42.0613 9.28464 42.6093 9.28464C43.1818 9.28464 43.6561 9.48489 44.0323 9.88543C44.4167 10.286 44.6089 10.7724 44.6089 11.3446V11.7124H43.4312V11.3446C43.4312 11.2873 43.4271 11.2342 43.4189 11.1851C43.4189 11.1361 43.4148 11.0911 43.4066 11.0503C43.3984 11.0094 43.378 10.9604 43.3453 10.9031C43.3126 10.8459 43.2676 10.7764 43.2103 10.6947C43.0958 10.5312 42.9037 10.4495 42.6338 10.4495C42.3966 10.4495 42.2003 10.5353 42.0449 10.707C41.8977 10.8786 41.8241 11.0911 41.8241 11.3446V11.7124V11.8227C41.8241 11.9862 41.8486 12.117 41.8977 12.2151C41.955 12.305 42.0858 12.4072 42.2903 12.5216C42.3557 12.5544 42.4539 12.5993 42.5847 12.6565C42.7238 12.7056 42.8914 12.7669 43.0877 12.8405C43.4802 12.9712 43.8319 13.2042 44.1427 13.5394C44.4535 13.8745 44.6089 14.3159 44.6089 14.8636V15.5257C44.6089 15.8118 44.5803 16.053 44.523 16.2491C44.4739 16.4453 44.3063 16.7314 44.02 17.1074C43.7338 17.4671 43.2553 17.6469 42.5847 17.6469C41.8732 17.6469 41.358 17.4181 41.039 16.9603C40.72 16.4944 40.5605 16.0162 40.5605 15.5257V15.2314H41.7505L41.7505 15.5257Z" fill="white"/>
<path d="M45.1426 17.5734V9.35818H47.0686H47.0931C47.3385 9.35818 47.5715 9.41131 47.7924 9.51757C48.0132 9.61566 48.2095 9.74646 48.3812 9.90995C48.553 10.0734 48.6879 10.2614 48.7861 10.474C48.8924 10.6783 48.9496 10.8909 48.9578 11.1116V12.3009V12.4236C48.9578 12.6933 48.9047 12.9467 48.7983 13.1838C48.7002 13.4126 48.5652 13.6129 48.3935 13.7846C48.2217 13.9562 48.0173 14.0911 47.7801 14.1892C47.5511 14.2873 47.3058 14.3363 47.0441 14.3363H46.9336H46.3202V17.5734H45.1426ZM47.6329 12.9876C47.7065 12.914 47.7515 12.8364 47.7679 12.7546C47.7924 12.6729 47.8047 12.5707 47.8047 12.4481V11.2342C47.8047 11.0053 47.7352 10.8173 47.5961 10.6702C47.4571 10.5148 47.269 10.4372 47.0318 10.4372H46.3203V13.2205H46.9337C47.0972 13.2205 47.2281 13.2083 47.3262 13.1838C47.4325 13.1511 47.5348 13.0857 47.6329 12.9876Z" fill="white"/>
<path d="M49.8929 10.1307C50.081 9.86909 50.3182 9.66473 50.6044 9.51759C50.8989 9.36228 51.2014 9.28464 51.5122 9.28464C51.8148 9.28464 52.097 9.34594 52.3587 9.46856C52.6286 9.59117 52.8535 9.75874 53.0334 9.97127C53.2134 10.1838 53.3361 10.4045 53.4015 10.6334C53.4669 10.8541 53.4996 11.0952 53.4996 11.3568V15.538C53.4996 15.7832 53.4751 15.9998 53.426 16.1878C53.3851 16.3758 53.287 16.5843 53.1316 16.8132C52.9844 17.042 52.7676 17.2382 52.4814 17.4017C52.2033 17.5652 51.8925 17.6469 51.549 17.6469C51.3528 17.6469 51.1647 17.6224 50.9847 17.5734C50.8048 17.5162 50.6372 17.4426 50.4818 17.3527C50.3264 17.2628 50.1873 17.1606 50.0646 17.0461C49.9501 16.9317 49.8602 16.8132 49.7948 16.6906C49.6721 16.4372 49.5985 16.2328 49.5739 16.0775C49.5494 15.9222 49.5371 15.7423 49.5371 15.538V11.3568C49.5371 11.1116 49.5616 10.895 49.6107 10.707C49.668 10.5108 49.762 10.3187 49.8929 10.1307ZM52.1747 10.7805C52.0193 10.5516 51.8067 10.4372 51.5368 10.4372C51.3977 10.4372 51.2587 10.4781 51.1197 10.5598C50.9888 10.6334 50.8948 10.7192 50.8375 10.8173C50.7884 10.9154 50.7557 11.0135 50.7394 11.1116C50.723 11.2097 50.7149 11.2914 50.7149 11.3568V15.538C50.7149 15.5788 50.7149 15.6238 50.7149 15.6728C50.7149 15.7137 50.7189 15.7587 50.7271 15.8077C50.7353 15.8895 50.8008 16.0244 50.9234 16.2124C51.0461 16.384 51.2506 16.4698 51.5368 16.4698C51.684 16.4698 51.8149 16.4371 51.9294 16.3717C52.0521 16.2982 52.138 16.2164 52.187 16.1265C52.2443 16.0284 52.2811 15.9385 52.2974 15.8568C52.3138 15.775 52.3219 15.6688 52.3219 15.538V11.3568C52.3219 11.1933 52.3138 11.0789 52.2974 11.0135C52.2892 10.9481 52.2483 10.8704 52.1748 10.7805H52.1747Z" fill="white"/>
<path d="M57.3464 17.5734L55.5186 12.583V17.5734H54.3408V9.35818H55.4572L57.2728 14.3363V9.35818H58.4505V17.5734H57.3464Z" fill="white"/>
<path d="M59.9849 15.5257C59.9849 15.6075 59.9849 15.6769 59.9849 15.7341C59.9849 15.7914 59.989 15.8404 59.9972 15.8813C60.0136 15.963 60.0749 16.0816 60.1812 16.2369C60.2957 16.4004 60.5002 16.4821 60.7946 16.4821C60.9582 16.4821 61.1095 16.4494 61.2486 16.384C61.3876 16.3104 61.4898 16.2164 61.5553 16.102C61.6043 16.0121 61.633 15.9263 61.6412 15.8445C61.6575 15.7628 61.6657 15.6892 61.6657 15.6238V15.5134V14.9372V14.8268C61.6657 14.647 61.6329 14.508 61.5675 14.4099C61.5021 14.3036 61.3549 14.1851 61.1259 14.0543C60.9705 13.9726 60.6924 13.8581 60.2916 13.711C59.8909 13.5639 59.5556 13.3309 59.2857 13.0121C59.0158 12.6933 58.8808 12.2601 58.8808 11.7124V11.3446C58.8808 10.7805 59.0689 10.2982 59.4452 9.8977C59.8296 9.48899 60.2957 9.28464 60.8437 9.28464C61.4162 9.28464 61.8906 9.48489 62.2668 9.88543C62.6512 10.286 62.8434 10.7724 62.8434 11.3446V11.7124H61.6657V11.3446C61.6657 11.2873 61.6616 11.2342 61.6534 11.1851C61.6534 11.1361 61.6493 11.0911 61.6411 11.0503C61.6329 11.0094 61.6125 10.9604 61.5798 10.9031C61.547 10.8459 61.502 10.7764 61.4448 10.6947C61.3303 10.5312 61.1381 10.4495 60.8682 10.4495C60.631 10.4495 60.4347 10.5353 60.2793 10.707C60.1321 10.8786 60.0585 11.0911 60.0585 11.3446V11.7124V11.8227C60.0585 11.9862 60.0831 12.117 60.1321 12.2151C60.1894 12.305 60.3203 12.4072 60.5247 12.5216C60.5902 12.5544 60.6883 12.5993 60.8192 12.6565C60.9582 12.7056 61.1258 12.7669 61.3221 12.8405C61.7147 12.9712 62.0664 13.2042 62.3772 13.5394C62.688 13.8745 62.8434 14.3159 62.8434 14.8636V15.5257C62.8434 15.8118 62.8148 16.053 62.7575 16.2491C62.7084 16.4453 62.5408 16.7314 62.2545 17.1074C61.9683 17.4671 61.4898 17.6469 60.8192 17.6469C60.1076 17.6469 59.5924 17.4181 59.2734 16.9603C58.9544 16.4944 58.7949 16.0162 58.7949 15.5257V15.2314H59.9849V15.5257Z" fill="white"/>
<path d="M63.4893 17.5734V9.35818H64.6546V17.5734H63.4893Z" fill="white"/>
<path d="M67.4226 9.35818C67.6761 9.35818 67.9133 9.41131 68.1341 9.51757C68.3795 9.63201 68.6289 9.81593 68.8824 10.0693C69.1523 10.3309 69.2872 10.7396 69.2872 11.2955V11.9208C69.2872 12.5502 69.0378 12.9917 68.5389 13.2451C69.0378 13.5394 69.2872 13.9971 69.2872 14.6184V15.5748C69.2872 16.1551 69.0991 16.6333 68.7229 17.0094C68.3549 17.3854 67.8806 17.5734 67.2999 17.5734H65.4844V9.35818H67.4226ZM68.1218 11.7982V11.2955C68.1218 11.0421 68.0482 10.8418 67.901 10.6947C67.7538 10.5394 67.5575 10.4617 67.3122 10.4617H66.6498V12.7301H67.349C67.6189 12.7301 67.8152 12.6483 67.9379 12.4849C68.0605 12.3132 68.1218 12.0843 68.1218 11.7982ZM68.1218 15.5748V14.6184C68.1218 14.3568 68.0482 14.1524 67.901 14.0053C67.762 13.85 67.5657 13.7723 67.3122 13.7723H66.6498V16.4085H67.3245C67.5616 16.4085 67.7538 16.3309 67.901 16.1756C68.0482 16.0121 68.1218 15.8118 68.1218 15.5748Z" fill="white"/>
<path d="M73.4031 17.5734H69.8945V9.35818H71.0722V16.3963H73.4031V17.5734Z" fill="white"/>
<path d="M77.2502 16.3963V17.5734H73.7295V9.35818H77.2502V10.4372H74.8949V12.865H76.9558V13.9808H74.8949V16.3963H77.2502Z" fill="white"/>
<path d="M36.053 26.8301C36.053 27.0917 36.0367 27.3165 36.0039 27.5045C35.9794 27.6925 35.8976 27.8968 35.7586 28.1175C35.685 28.232 35.5909 28.3423 35.4764 28.4486C35.3701 28.5467 35.2474 28.6366 35.1084 28.7183C34.9775 28.7919 34.8344 28.8532 34.679 28.9023C34.5236 28.9513 34.3723 28.9758 34.2251 28.9758C33.8571 28.9758 33.5218 28.8982 33.2192 28.7429C32.9248 28.5876 32.708 28.3914 32.569 28.1543C32.43 27.9173 32.34 27.6966 32.2991 27.4922C32.2664 27.2879 32.25 27.0672 32.25 26.8301V22.5999C32.25 22.3711 32.2705 22.1667 32.3113 21.9869C32.3604 21.7989 32.4585 21.5986 32.6058 21.3861C32.753 21.1735 32.9615 20.9937 33.2314 20.8466C33.5013 20.6912 33.7834 20.6136 34.0779 20.6136C34.6422 20.6136 35.1124 20.8016 35.4887 21.1776C35.8649 21.5455 36.053 22.0196 36.053 22.5999V23.0413H34.8875V22.5999C34.8875 22.3711 34.8221 22.179 34.6913 22.0236C34.5686 21.8683 34.3846 21.7907 34.1392 21.7907C33.9102 21.7907 33.7303 21.8683 33.5995 22.0236C33.4768 22.179 33.4154 22.3711 33.4154 22.5999V27.1489C33.4318 27.2715 33.489 27.4105 33.5872 27.5658C33.7017 27.7293 33.8898 27.811 34.1515 27.811C34.4295 27.811 34.6136 27.7374 34.7035 27.5903C34.7935 27.4432 34.8467 27.3369 34.863 27.2715C34.8794 27.1979 34.8875 27.0998 34.8875 26.9772V26.5603H36.053L36.053 26.8301Z" fill="white"/>
<path d="M37.3372 21.4596C37.5253 21.1981 37.7625 20.9937 38.0488 20.8466C38.3432 20.6912 38.6458 20.6136 38.9566 20.6136C39.2592 20.6136 39.5414 20.6749 39.8031 20.7975C40.073 20.9201 40.2979 21.0877 40.4778 21.3002C40.6577 21.5128 40.7804 21.7335 40.8458 21.9623C40.9112 22.183 40.944 22.4242 40.944 22.6858V26.8669C40.944 27.1121 40.9194 27.3287 40.8704 27.5167C40.8295 27.7047 40.7313 27.9132 40.5759 28.1421C40.4287 28.3709 40.212 28.5671 39.9258 28.7306C39.6477 28.8941 39.3369 28.9758 38.9934 28.9758C38.7971 28.9758 38.609 28.9513 38.4291 28.9023C38.2491 28.845 38.0815 28.7715 37.9261 28.6816C37.7707 28.5916 37.6316 28.4895 37.509 28.375C37.3945 28.2606 37.3045 28.1421 37.2391 28.0194C37.1164 27.766 37.0428 27.5617 37.0183 27.4064C36.9937 27.2511 36.9814 27.0712 36.9814 26.8669V22.6858C36.9814 22.4405 37.006 22.2239 37.0551 22.0359C37.1123 21.8397 37.2064 21.6476 37.3372 21.4596ZM39.6191 22.1095C39.4637 21.8806 39.251 21.7662 38.9811 21.7662C38.8421 21.7662 38.703 21.807 38.564 21.8888C38.4332 21.9623 38.3391 22.0482 38.2819 22.1463C38.2328 22.2444 38.2001 22.3424 38.1837 22.4405C38.1674 22.5386 38.1592 22.6204 38.1592 22.6858V26.8669C38.1592 26.9077 38.1592 26.9527 38.1592 27.0017C38.1592 27.0426 38.1633 27.0876 38.1715 27.1366C38.1797 27.2184 38.2451 27.3533 38.3678 27.5413C38.4905 27.7129 38.6949 27.7987 38.9812 27.7987C39.1284 27.7987 39.2592 27.766 39.3737 27.7006C39.4964 27.6271 39.5823 27.5453 39.6314 27.4554C39.6886 27.3573 39.7254 27.2674 39.7418 27.1857C39.7581 27.1039 39.7663 26.9977 39.7663 26.8669V22.6858C39.7663 22.5223 39.7581 22.4078 39.7418 22.3424C39.7336 22.2771 39.6927 22.1994 39.6191 22.1095H39.6191Z" fill="white"/>
<path d="M44.736 28.9023L42.9082 23.9119V28.9023H41.7305V20.6871H42.8468L44.6624 25.6653V20.6871H45.8401V28.9023H44.736Z" fill="white"/>
<path d="M47.318 26.8546C47.318 26.9364 47.318 27.0058 47.318 27.0631C47.318 27.1203 47.322 27.1693 47.3302 27.2102C47.3466 27.2919 47.4079 27.4105 47.5142 27.5658C47.6287 27.7293 47.8332 27.811 48.1277 27.811C48.2912 27.811 48.4425 27.7783 48.5816 27.7129C48.7206 27.6393 48.8228 27.5453 48.8883 27.4309C48.9373 27.341 48.966 27.2552 48.9742 27.1734C48.9905 27.0917 48.9987 27.0181 48.9987 26.9527V26.8423V26.2661V26.1557C48.9987 25.9759 48.9659 25.8369 48.9005 25.7388C48.8351 25.6326 48.6879 25.514 48.4589 25.3833C48.3035 25.3015 48.0254 25.1871 47.6246 25.0399C47.2239 24.8928 46.8886 24.6598 46.6187 24.341C46.3488 24.0222 46.2138 23.589 46.2138 23.0413V22.6735C46.2138 22.1095 46.4019 21.6272 46.7782 21.2267C47.1626 20.8179 47.6287 20.6136 48.1767 20.6136C48.7492 20.6136 49.2236 20.8139 49.5998 21.2144C49.9842 21.6149 50.1764 22.1013 50.1764 22.6735V23.0413H48.9987V22.6735C48.9987 22.6163 48.9945 22.5631 48.9864 22.5141C48.9864 22.4651 48.9823 22.4201 48.9741 22.3792C48.9659 22.3384 48.9454 22.2893 48.9127 22.2321C48.88 22.1749 48.835 22.1054 48.7778 22.0236C48.6633 21.8602 48.4711 21.7784 48.2012 21.7784C47.964 21.7784 47.7678 21.8643 47.6124 22.0359C47.4651 22.2076 47.3915 22.4201 47.3915 22.6735V23.0413V23.1517C47.3915 23.3152 47.4161 23.446 47.4651 23.5441C47.5224 23.634 47.6533 23.7361 47.8577 23.8506C47.9232 23.8833 48.0213 23.9283 48.1522 23.9855C48.2912 24.0345 48.4589 24.0958 48.6551 24.1694C49.0477 24.3002 49.3994 24.5331 49.7102 24.8683C50.021 25.2034 50.1764 25.6448 50.1764 26.1925V26.8546C50.1764 27.1407 50.1478 27.3819 50.0905 27.578C50.0414 27.7742 49.8737 28.0603 49.5875 28.4363C49.3012 28.796 48.8228 28.9758 48.1522 28.9758C47.4406 28.9758 46.9254 28.747 46.6064 28.2892C46.2874 27.8233 46.1279 27.3451 46.1279 26.8546V26.5603H47.3179L47.318 26.8546Z" fill="white"/>
<path d="M54.2676 28.044C54.0877 28.3219 53.8546 28.5467 53.5684 28.7184C53.2903 28.89 52.9795 28.9759 52.636 28.9759C52.4642 28.9759 52.2925 28.9513 52.1208 28.9023C51.9572 28.8532 51.8018 28.7919 51.6546 28.7184C51.5074 28.6366 51.3765 28.5467 51.262 28.4486C51.1475 28.3424 51.0617 28.232 51.0044 28.1176C50.8817 27.8887 50.8 27.6884 50.7591 27.5167C50.7263 27.3451 50.71 27.1612 50.71 26.965V20.6871H51.8877V26.965C51.8877 27.0222 51.8877 27.0753 51.8877 27.1244C51.8959 27.1652 51.904 27.2061 51.9122 27.247C51.9204 27.3124 51.9817 27.4268 52.0962 27.5903C52.2025 27.7375 52.3865 27.811 52.6482 27.811C52.8854 27.811 53.0612 27.7252 53.1757 27.5535C53.2984 27.3737 53.3598 27.1775 53.3598 26.965V20.6871H54.5375V26.965C54.5375 27.1612 54.517 27.3492 54.4761 27.529C54.4353 27.7088 54.3658 27.8805 54.2676 28.044H54.2676Z" fill="white"/>
<path d="M59.057 28.9023V23.8996L57.8793 27.4064H57.2904L56.125 23.8996V28.9023H54.9473V20.6871H56.0514L57.6094 25.0645L59.1429 20.6871H60.2224V28.9023H59.057Z" fill="white"/>
<path d="M61.0391 28.9023V20.6871H62.9651H62.9896C63.2349 20.6871 63.468 20.7403 63.6888 20.8465C63.9097 20.9446 64.1059 21.0754 64.2777 21.2389C64.4494 21.4024 64.5844 21.5904 64.6825 21.8029C64.7888 22.0073 64.8461 22.2198 64.8542 22.4405V23.6299V23.7525C64.8542 24.0222 64.8011 24.2756 64.6948 24.5127C64.5966 24.7416 64.4617 24.9418 64.29 25.1135C64.1182 25.2852 63.9137 25.42 63.6766 25.5181C63.4476 25.6162 63.2022 25.6653 62.9405 25.6653H62.8301H62.2167V28.9023H61.0391ZM63.5294 24.3165C63.603 24.243 63.648 24.1653 63.6643 24.0836C63.6889 24.0018 63.7011 23.8996 63.7011 23.777V22.5631C63.7011 22.3343 63.6316 22.1462 63.4926 21.9991C63.3535 21.8438 63.1655 21.7661 62.9283 21.7661H62.2167V24.5495H62.8301C62.9937 24.5495 63.1246 24.5372 63.2227 24.5127C63.329 24.48 63.4313 24.4146 63.5294 24.3165Z" fill="white"/>
<path d="M66.4634 28.9023V21.7784H65.0771V20.6871H69.0397V21.7784H67.6289V28.9023H66.4634Z" fill="white"/>
<path d="M69.4619 28.9023V20.6871H70.6273V28.9023H69.4619Z" fill="white"/>
<path d="M71.8392 21.4596C72.0273 21.1981 72.2645 20.9937 72.5507 20.8466C72.8451 20.6912 73.1478 20.6136 73.4585 20.6136C73.7612 20.6136 74.0433 20.6749 74.305 20.7975C74.5749 20.9201 74.7998 21.0877 74.9797 21.3002C75.1597 21.5128 75.2823 21.7335 75.3478 21.9623C75.4132 22.183 75.4459 22.4242 75.4459 22.6858V26.8669C75.4459 27.1121 75.4214 27.3287 75.3723 27.5167C75.3314 27.7047 75.2333 27.9132 75.0779 28.1421C74.9307 28.3709 74.714 28.5671 74.4277 28.7306C74.1496 28.8941 73.8388 28.9758 73.4953 28.9758C73.299 28.9758 73.1109 28.9513 72.931 28.9023C72.7511 28.845 72.5834 28.7715 72.4281 28.6816C72.2727 28.5916 72.1336 28.4895 72.0109 28.375C71.8964 28.2606 71.8065 28.1421 71.741 28.0194C71.6184 27.766 71.5448 27.5617 71.5202 27.4064C71.4957 27.2511 71.4834 27.0712 71.4834 26.8669V22.6858C71.4834 22.4405 71.5079 22.2239 71.557 22.0359C71.6143 21.8397 71.7083 21.6476 71.8392 21.4596ZM74.121 22.1095C73.9656 21.8806 73.7529 21.7662 73.4831 21.7662C73.344 21.7662 73.205 21.807 73.066 21.8888C72.9351 21.9623 72.8411 22.0482 72.7838 22.1463C72.7347 22.2444 72.702 22.3424 72.6857 22.4405C72.6693 22.5386 72.6611 22.6204 72.6611 22.6858V26.8669C72.6611 26.9077 72.6611 26.9527 72.6611 27.0017C72.6611 27.0426 72.6652 27.0876 72.6734 27.1366C72.6816 27.2184 72.7471 27.3533 72.8697 27.5413C72.9924 27.7129 73.1968 27.7987 73.4831 27.7987C73.6303 27.7987 73.7612 27.766 73.8757 27.7006C73.9984 27.6271 74.0842 27.5453 74.1333 27.4554C74.1906 27.3573 74.2274 27.2674 74.2437 27.1857C74.2601 27.1039 74.2682 26.9977 74.2682 26.8669V22.6858C74.2682 22.5223 74.2601 22.4078 74.2437 22.3424C74.2355 22.2771 74.1946 22.1994 74.121 22.1095H74.121Z" fill="white"/>
<path d="M79.3493 28.9023L77.5214 23.9119V28.9023H76.3438V20.6871H77.4601L79.2757 25.6653V20.6871H80.4534V28.9023H79.3493Z" fill="white"/>
<path d="M31.8662 40.2312L33.7063 32.016H34.7245L36.5646 40.2312H35.3011L34.9699 38.4656H33.4487L33.1052 40.2312H31.8662ZM33.6573 37.3743H34.7613L34.2093 34.3825L33.6573 37.3743Z" fill="white"/>
<path d="M40.114 40.2312L38.2861 35.2408V40.2312H37.1084V32.016H38.2248L40.0404 36.9942V32.016H41.2181V40.2312H40.114Z" fill="white"/>
<path d="M43.7455 32.016C44.2771 32.016 44.7311 32.204 45.1073 32.58C45.4917 32.9479 45.6838 33.3975 45.6838 33.9288V38.1958C45.6838 38.8007 45.4998 39.2911 45.1318 39.6672C44.7637 40.0432 44.2894 40.2312 43.7088 40.2312H41.8809V32.016H43.7455ZM44.5184 38.1958V33.9288C44.5184 33.6999 44.4325 33.5078 44.2608 33.3525C44.0972 33.1972 43.8968 33.1195 43.6597 33.1195H43.0463V39.1399H43.6229C44.2199 39.1399 44.5184 38.8252 44.5184 38.1958Z" fill="white"/>
<path d="M47.6416 40.2312V32.016H49.5676H49.5921C49.8375 32.016 50.0705 32.0691 50.2913 32.1754C50.5122 32.2735 50.7085 32.4043 50.8802 32.5678C51.052 32.7313 51.1869 32.9193 51.285 33.1318C51.3913 33.3361 51.4486 33.5487 51.4568 33.7694V34.9588V35.0814C51.4568 35.3511 51.4036 35.6045 51.2973 35.8416C51.1992 36.0705 51.0642 36.2707 50.8925 36.4424C50.7207 36.6141 50.5163 36.7489 50.2791 36.847C50.0501 36.9451 49.8048 36.9942 49.5431 36.9942H49.4326H48.8192V40.2312H47.6416ZM50.1319 35.6454C50.2055 35.5718 50.2505 35.4942 50.2668 35.4124C50.2914 35.3307 50.3037 35.2285 50.3037 35.1059V33.892C50.3037 33.6631 50.2341 33.4751 50.0951 33.328C49.9561 33.1727 49.768 33.095 49.5308 33.095H48.8193V35.8784H49.4327C49.5962 35.8784 49.7271 35.8661 49.8252 35.8416C49.9315 35.8089 50.0338 35.7435 50.1319 35.6454Z" fill="white"/>
<path d="M52.165 40.2312V32.016H54.226C54.7658 32.016 55.2197 32.204 55.5877 32.58C55.9639 32.956 56.1521 33.4179 56.1521 33.9656V34.7258C56.1521 35.486 55.829 36.0664 55.1829 36.4669L56.4342 40.2312H55.1829L54.0788 36.7122H53.3427V40.2312H52.165ZM54.7781 35.4124C54.8517 35.3225 54.9007 35.2203 54.9253 35.1059C54.958 34.9915 54.9744 34.8647 54.9744 34.7258V33.9656C54.9744 33.7122 54.9049 33.5078 54.7658 33.3525C54.6268 33.189 54.4305 33.1073 54.177 33.1073H53.3428V35.6699H54.1647C54.4101 35.6699 54.6145 35.5841 54.7781 35.4124H54.7781Z" fill="white"/>
<path d="M57.0208 32.7885C57.2089 32.5269 57.4461 32.3226 57.7323 32.1754C58.0267 32.0201 58.3293 31.9424 58.6401 31.9424C58.9427 31.9424 59.2249 32.0038 59.4866 32.1264C59.7565 32.249 59.9814 32.4166 60.1613 32.6291C60.3412 32.8416 60.4639 33.0623 60.5293 33.2912C60.5948 33.5119 60.6274 33.7531 60.6274 34.0146V38.1958C60.6274 38.441 60.6029 38.6576 60.5538 38.8456C60.513 39.0336 60.4148 39.2421 60.2594 39.471C60.1122 39.6998 59.8955 39.896 59.6092 40.0595C59.3312 40.223 59.0204 40.3047 58.6769 40.3047C58.4806 40.3047 58.2925 40.2802 58.1126 40.2312C57.9327 40.174 57.765 40.1004 57.6096 40.0105C57.4542 39.9206 57.3152 39.8184 57.1925 39.7039C57.0781 39.5895 56.9881 39.471 56.9226 39.3484C56.8 39.095 56.7264 38.8906 56.7018 38.7353C56.6773 38.58 56.665 38.4001 56.665 38.1958V34.0146C56.665 33.7694 56.6896 33.5528 56.7386 33.3648C56.7959 33.1686 56.8899 32.9765 57.0208 32.7885ZM59.3025 33.4383C59.1472 33.2095 58.9345 33.095 58.6647 33.095C58.5256 33.095 58.3866 33.1359 58.2475 33.2176C58.1167 33.2912 58.0226 33.377 57.9654 33.4751C57.9163 33.5732 57.8836 33.6713 57.8673 33.7694C57.8509 33.8675 57.8428 33.9492 57.8428 34.0146V38.1958C57.8428 38.2366 57.8428 38.2816 57.8428 38.3307C57.8428 38.3715 57.8468 38.4165 57.855 38.4655C57.8632 38.5473 57.9286 38.6822 58.0513 38.8702C58.174 39.0418 58.3784 39.1277 58.6647 39.1277C58.8119 39.1277 58.9428 39.0949 59.0573 39.0296C59.1799 38.956 59.2658 38.8742 59.3149 38.7843C59.3721 38.6862 59.4089 38.5963 59.4253 38.5146C59.4416 38.4328 59.4498 38.3266 59.4498 38.1958V34.0146C59.4498 33.8512 59.4416 33.7367 59.4253 33.6713C59.4171 33.6059 59.3762 33.5283 59.3026 33.4383H59.3025Z" fill="white"/>
<path d="M63.2788 32.016C63.8104 32.016 64.2643 32.204 64.6405 32.58C65.0249 32.9479 65.2171 33.3975 65.2171 33.9288V38.1958C65.2171 38.8007 65.0331 39.2911 64.665 39.6672C64.297 40.0432 63.8226 40.2312 63.242 40.2312H61.4141V32.016H63.2788ZM64.0517 38.1958V33.9288C64.0517 33.6999 63.9658 33.5078 63.794 33.3525C63.6305 33.1972 63.4301 33.1195 63.1929 33.1195H62.5795V39.1399H63.1561C63.7531 39.1399 64.0517 38.8252 64.0517 38.1958Z" fill="white"/>
<path d="M69.7305 39.3728C69.5506 39.6508 69.3175 39.8756 69.0313 40.0472C68.7532 40.2189 68.4424 40.3047 68.0989 40.3047C67.9272 40.3047 67.7554 40.2802 67.5837 40.2311C67.4201 40.1821 67.2647 40.1208 67.1175 40.0472C66.9703 39.9655 66.8394 39.8756 66.7249 39.7775C66.6104 39.6712 66.5246 39.5609 66.4673 39.4464C66.3446 39.2175 66.2628 39.0173 66.2219 38.8456C66.1892 38.6739 66.1729 38.49 66.1729 38.2938V32.016H67.3505V38.2938C67.3505 38.3511 67.3505 38.4042 67.3505 38.4532C67.3587 38.4941 67.3669 38.535 67.3751 38.5759C67.3833 38.6413 67.4446 38.7557 67.5591 38.9192C67.6654 39.0663 67.8494 39.1399 68.1112 39.1399C68.3483 39.1399 68.5241 39.054 68.6386 38.8824C68.7613 38.7026 68.8227 38.5064 68.8227 38.2938V32.016H70.0004V38.2938C70.0004 38.49 69.9799 38.678 69.939 38.8579C69.8982 39.0377 69.8286 39.2094 69.7305 39.3728H69.7305Z" fill="white"/>
<path d="M74.7015 38.159C74.7015 38.4206 74.6852 38.6454 74.6524 38.8334C74.6279 39.0214 74.5461 39.2257 74.4071 39.4464C74.3335 39.5609 74.2394 39.6712 74.1249 39.7775C74.0186 39.8756 73.8959 39.9655 73.7569 40.0473C73.626 40.1208 73.4829 40.1821 73.3275 40.2312C73.1721 40.2802 73.0208 40.3047 72.8736 40.3047C72.5056 40.3047 72.1702 40.2271 71.8676 40.0718C71.5732 39.9165 71.3564 39.7203 71.2174 39.4832C71.0784 39.2462 70.9884 39.0255 70.9475 38.8211C70.9148 38.6168 70.8984 38.3961 70.8984 38.159V33.9288C70.8984 33.6999 70.9189 33.4956 70.9597 33.3157C71.0088 33.1277 71.1069 32.9275 71.2542 32.7149C71.4014 32.5024 71.6099 32.3226 71.8798 32.1754C72.1497 32.0201 72.4319 31.9424 72.7263 31.9424C73.2907 31.9424 73.7609 32.1305 74.1372 32.5065C74.5134 32.8743 74.7015 33.3484 74.7015 33.9288V34.3702H73.536V33.9288C73.536 33.6999 73.4706 33.5078 73.3397 33.3525C73.217 33.1972 73.033 33.1196 72.7877 33.1196C72.5587 33.1196 72.3787 33.1972 72.2479 33.3525C72.1252 33.5078 72.0638 33.6999 72.0638 33.9288V38.4778C72.0802 38.6004 72.1374 38.7394 72.2356 38.8947C72.3501 39.0582 72.5382 39.1399 72.7999 39.1399C73.078 39.1399 73.262 39.0663 73.352 38.9192C73.4419 38.7721 73.4951 38.6658 73.5115 38.6004C73.5278 38.5268 73.536 38.4288 73.536 38.3061V37.8892H74.7014L74.7015 38.159Z" fill="white"/>
<path d="M76.2671 40.2312V33.1073H74.8809V32.016H78.8434V33.1073H77.4326V40.2312H76.2671Z" fill="white"/>
<path d="M79.3223 40.2312V32.016H80.4876V40.2312H79.3223Z" fill="white"/>
<path d="M81.5872 32.7885C81.7753 32.5269 82.0125 32.3226 82.2987 32.1754C82.5931 32.0201 82.8958 31.9424 83.2065 31.9424C83.5091 31.9424 83.7913 32.0038 84.053 32.1264C84.3229 32.249 84.5478 32.4166 84.7278 32.6291C84.9077 32.8416 85.0304 33.0623 85.0958 33.2912C85.1612 33.5119 85.1939 33.7531 85.1939 34.0146V38.1958C85.1939 38.441 85.1694 38.6576 85.1203 38.8456C85.0794 39.0336 84.9813 39.2421 84.8259 39.471C84.6787 39.6998 84.4619 39.896 84.1757 40.0595C83.8976 40.223 83.5869 40.3047 83.2434 40.3047C83.0471 40.3047 82.859 40.2802 82.679 40.2312C82.4991 40.174 82.3314 40.1004 82.1761 40.0105C82.0207 39.9206 81.8816 39.8184 81.759 39.7039C81.6445 39.5895 81.5545 39.471 81.489 39.3484C81.3664 39.095 81.2928 38.8906 81.2682 38.7353C81.2437 38.58 81.2314 38.4001 81.2314 38.1958V34.0146C81.2314 33.7694 81.256 33.5528 81.3051 33.3648C81.3623 33.1686 81.4563 32.9765 81.5872 32.7885ZM83.869 33.4383C83.7136 33.2095 83.501 33.095 83.2311 33.095C83.0921 33.095 82.953 33.1359 82.814 33.2176C82.6831 33.2912 82.5891 33.377 82.5318 33.4751C82.4827 33.5732 82.45 33.6713 82.4337 33.7694C82.4173 33.8675 82.4091 33.9492 82.4091 34.0146V38.1958C82.4091 38.2366 82.4091 38.2816 82.4091 38.3307C82.4091 38.3715 82.4133 38.4165 82.4215 38.4655C82.4297 38.5473 82.4951 38.6822 82.6177 38.8702C82.7404 39.0418 82.9449 39.1277 83.2311 39.1277C83.3783 39.1277 83.5092 39.0949 83.6237 39.0296C83.7464 38.956 83.8322 38.8742 83.8813 38.7843C83.9386 38.6862 83.9754 38.5963 83.9917 38.5146C84.0081 38.4328 84.0162 38.3266 84.0162 38.1958V34.0146C84.0162 33.8512 84.0081 33.7367 83.9917 33.6713C83.9835 33.6059 83.9426 33.5283 83.869 33.4383H83.869Z" fill="white"/>
<path d="M88.9851 40.2312L87.1572 35.2408V40.2312H85.9795V32.016H87.0958L88.9115 36.9942V32.016H90.0891V40.2312H88.9851Z" fill="white"/>
<path d="M11.0447 28.7537V12.0301L8.22656 14.1425V11.1498L11.0447 9.09607H13.8334V28.7537H11.0447Z" fill="white"/>
<path d="M24.5565 28.7528H16.1906V26.1709L21.4156 16.0193C21.6504 15.5499 21.7679 15.0707 21.7679 14.5817V13.1147C21.7679 12.7235 21.6309 12.391 21.3569 12.1171C21.0829 11.8237 20.7502 11.677 20.3589 11.677C20.0066 11.677 19.6837 11.8042 19.3902 12.0585C19.1162 12.3127 18.9792 12.6257 18.9792 12.9973V14.7284H16.1318V13.3201C16.1318 12.5572 16.4156 11.6281 16.9831 10.5328C17.5702 9.457 18.7444 8.9191 20.5056 8.9191C21.6211 8.9191 22.5702 9.33963 23.353 10.1807C24.1553 11.0413 24.5565 12.0193 24.5565 13.1147V14.9044C24.5565 15.7064 24.3413 16.5083 23.9107 17.3103L19.5076 25.9655H24.5565V28.7528Z" fill="white"/>
<path fill-rule="evenodd" clip-rule="evenodd" d="M46.064 67.5551L37.3783 70.4391C36.9944 70.5667 36.8925 71.0616 37.1946 71.3304L44.0353 77.4064C44.3375 77.675 44.8173 77.5163 44.8995 77.1205L46.7445 68.1605C46.8267 67.7641 46.4484 67.4276 46.064 67.5551ZM64.8613 48.2101C57.8122 48.2101 53.2391 53.2784 50.987 55.9144C50.987 55.9144 52.7106 59.4834 53.6749 60.0144C53.6749 60.0144 58.157 52.7428 64.8613 52.7428C67.2257 52.7428 69.8345 53.5172 71.7812 55.2612C73.7278 57.0051 75.184 59.7154 75.184 64.2622C75.184 66.9976 74.2822 69.6645 72.7272 71.5557C71.1721 73.447 69.0617 74.6284 66.1308 74.6284C62.9714 74.6284 60.4679 73.7238 58.0596 71.7982C55.6513 69.8726 53.3747 66.8403 51.1834 62.647C50.0589 60.4952 48.2447 57.0098 45.4047 53.9769C42.5647 50.9441 38.5161 48.3025 33.2953 48.3025C29.798 48.3025 26.1601 49.39 23.3771 52.0012C20.594 54.6124 18.8326 58.6859 18.8088 64.021C18.7687 72.9742 25.5704 79.0199 33.3416 79.0199C38.9347 79.0199 42.6976 75.5713 42.6976 75.5713L39.6581 72.2075C39.6581 72.2075 37.0779 74.4872 33.3416 74.4872C27.771 74.4872 23.312 70.8256 23.3424 64.0416C23.3621 59.6533 24.6805 56.9951 26.4808 55.3061C28.281 53.617 30.7307 52.8351 33.2953 52.8351C37.0216 52.8351 39.7914 54.6147 42.0943 57.0739C44.3973 59.5332 46.0493 62.6118 47.1645 64.7459C49.5326 69.2775 52.1096 72.8442 55.2267 75.3365C58.3438 77.8289 62.0385 79.161 66.1308 79.161C70.3673 79.161 73.9166 77.2471 76.2301 74.4334C78.5436 71.6197 79.7189 67.9709 79.7189 64.2622C79.7189 58.6877 77.7309 54.5058 74.8079 51.887C71.8849 49.2683 68.1978 48.2101 64.8613 48.2101Z" fill="white"/>
</svg>
