<svg width="98" height="98" viewBox="0 0 98 98" fill="none" xmlns="http://www.w3.org/2000/svg">
<path fill-rule="evenodd" clip-rule="evenodd" d="M1.01016 0.300751H97.2495C97.5506 0.300751 97.7929 0.542977 97.7929 0.843833V97.1932C97.7929 97.494 97.5506 97.7362 97.2495 97.7362H1.01016C0.70914 97.7362 0.466797 97.494 0.466797 97.1932V0.843833C0.466797 0.542977 0.70914 0.300751 1.01016 0.300751Z" fill="#02558B"/>
<path d="M31.3281 17.0772V8.86203H33.2542H33.2787C33.524 8.86203 33.7571 8.91517 33.9779 9.02143C34.1988 9.11953 34.395 9.25029 34.5668 9.41377C34.7385 9.57726 34.8735 9.76529 34.9717 9.97782C35.078 10.1822 35.1352 10.3947 35.1434 10.6154V11.8048V11.9274C35.1434 12.1971 35.0902 12.4505 34.9839 12.6876C34.8857 12.9165 34.7508 13.1167 34.5791 13.2884C34.4073 13.4601 34.2028 13.5949 33.9657 13.693C33.7367 13.7911 33.4913 13.8402 33.2296 13.8402H33.1192H32.5058V17.0772H31.3281ZM33.8185 12.4914C33.8921 12.4178 33.9371 12.3402 33.9534 12.2584C33.978 12.1767 33.9902 12.0745 33.9902 11.9519V10.738C33.9902 10.5091 33.9207 10.3211 33.7817 10.174C33.6426 10.0187 33.4546 9.94102 33.2174 9.94102H32.5059V12.7244H33.1192C33.2828 12.7244 33.4137 12.7121 33.5118 12.6876C33.6181 12.6549 33.7204 12.5895 33.8185 12.4914Z" fill="white"/>
<path d="M39.4974 15.9001V17.0772H35.9766V8.86203H39.4974V9.94102H37.142V12.3688H39.203V13.4846H37.142V15.9001H39.4974Z" fill="white"/>
<path d="M39.834 17.0772L41.6742 8.86203H42.6924L44.5325 17.0772H43.269L42.9377 15.3115H41.4165L41.0731 17.0772H39.834ZM41.6251 14.2203H42.7292L42.1771 11.2285L41.6251 14.2203Z" fill="white"/>
<path d="M48.8021 15.005C48.8021 15.2666 48.7857 15.4914 48.753 15.6794C48.7284 15.8674 48.6466 16.0718 48.5076 16.2925C48.434 16.4069 48.3399 16.5173 48.2254 16.6235C48.1191 16.7216 47.9965 16.8115 47.8574 16.8933C47.7266 16.9668 47.5834 17.0282 47.4281 17.0772C47.2727 17.1263 47.1214 17.1508 46.9741 17.1508C46.6061 17.1508 46.2708 17.0731 45.9682 16.9178C45.6737 16.7625 45.457 16.5663 45.318 16.3293C45.179 16.0922 45.089 15.8715 45.0481 15.6671C45.0154 15.4628 44.999 15.2421 44.999 15.005V10.7748C44.999 10.5459 45.0194 10.3416 45.0603 10.1617C45.1094 9.97371 45.2075 9.77344 45.3547 9.5609C45.502 9.34837 45.7105 9.16856 45.9804 9.02143C46.2503 8.86611 46.5325 8.78845 46.8269 8.78845C47.3912 8.78845 47.8614 8.97644 48.2376 9.35247C48.6139 9.72031 48.802 10.1944 48.802 10.7748V11.2162H47.6366V10.7748C47.6366 10.5459 47.5711 10.3538 47.4403 10.1985C47.3176 10.0432 47.1336 9.96555 46.8882 9.96555C46.6592 9.96555 46.4793 10.0432 46.3484 10.1985C46.2258 10.3538 46.1644 10.5459 46.1644 10.7748V15.3238C46.1807 15.4465 46.238 15.5854 46.3362 15.7407C46.4507 15.9042 46.6388 15.986 46.9005 15.986C47.1786 15.986 47.3626 15.9124 47.4525 15.7653C47.5425 15.6181 47.5957 15.5118 47.612 15.4464C47.6284 15.3729 47.6365 15.2748 47.6365 15.1522V14.7353H48.8019L48.8021 15.005Z" fill="white"/>
<path d="M53.1614 15.9001V17.0772H49.6406V8.86203H53.1614V9.94102H50.806V12.3688H52.867V13.4846H50.806V15.9001H53.1614Z" fill="white"/>
<path d="M53.7324 17.9477V15.9124H54.9101V17.0772L53.7324 17.9477Z" fill="white"/>
<path d="M60.2825 16.2556C60.1025 16.5254 59.8695 16.742 59.5832 16.9055C59.297 17.069 58.9944 17.1507 58.6754 17.1507C58.3646 17.1507 58.0702 17.0853 57.7921 16.9546C57.5223 16.8156 57.281 16.6276 57.0684 16.3905L57.9761 15.6548C58.1724 15.8592 58.3973 15.9614 58.6509 15.9614C58.9944 15.9614 59.207 15.8715 59.2888 15.6916C59.3788 15.5036 59.4278 15.3728 59.436 15.2993C59.4442 15.2257 59.4483 15.1398 59.4483 15.0417V8.86203H60.6015V14.9314C60.6015 15.3156 60.5769 15.5854 60.5278 15.7407C60.4951 15.8878 60.4133 16.0595 60.2825 16.2556H60.2825Z" fill="white"/>
<path d="M65.2333 16.2189C65.0534 16.4968 64.8203 16.7216 64.5341 16.8932C64.256 17.0649 63.9453 17.1507 63.6018 17.1507C63.43 17.1507 63.2583 17.1262 63.0866 17.0772C62.923 17.0281 62.7676 16.9668 62.6204 16.8932C62.4732 16.8115 62.3424 16.7216 62.2279 16.6235C62.1134 16.5172 62.0275 16.4069 61.9702 16.2924C61.8476 16.0636 61.7658 15.8633 61.7249 15.6916C61.6921 15.52 61.6758 15.336 61.6758 15.1399V8.86203H62.8534V15.1399C62.8534 15.1971 62.8534 15.2502 62.8534 15.2993C62.8616 15.3401 62.8698 15.381 62.878 15.4219C62.8862 15.4872 62.9475 15.6017 63.062 15.7652C63.1683 15.9123 63.3523 15.9859 63.614 15.9859C63.8512 15.9859 64.027 15.9001 64.1415 15.7284C64.2642 15.5486 64.3255 15.3524 64.3255 15.1399V8.86203H65.5032V15.1399C65.5032 15.336 65.4828 15.524 65.4419 15.7039C65.401 15.8837 65.3315 16.0554 65.2333 16.2189Z" fill="white"/>
<path d="M67.4498 15.0296C67.4498 15.1113 67.4498 15.1808 67.4498 15.238C67.4498 15.2952 67.4539 15.3443 67.4621 15.3851C67.4784 15.4669 67.5398 15.5854 67.6461 15.7407C67.7606 15.9042 67.965 15.986 68.2594 15.986C68.423 15.986 68.5743 15.9532 68.7134 15.8879C68.8524 15.8143 68.9546 15.7203 69.0201 15.6058C69.0691 15.5159 69.0978 15.4301 69.1059 15.3483C69.1223 15.2666 69.1304 15.193 69.1304 15.1276V15.0173V14.441V14.3306C69.1304 14.1508 69.0977 14.0119 69.0323 13.9138C68.9669 13.8075 68.8196 13.689 68.5906 13.5582C68.4353 13.4764 68.1572 13.362 67.7564 13.2148C67.3557 13.0677 67.0204 12.8348 66.7505 12.516C66.4806 12.1972 66.3456 11.7639 66.3456 11.2162V10.8484C66.3456 10.2843 66.5338 9.80208 66.91 9.40154C67.2944 8.99282 67.7605 8.78845 68.3085 8.78845C68.881 8.78845 69.3554 8.98873 69.7316 9.38927C70.116 9.78981 70.3081 10.2762 70.3081 10.8484V11.2162H69.1304V10.8484C69.1304 10.7912 69.1264 10.738 69.1182 10.689C69.1182 10.6399 69.114 10.595 69.1059 10.5541C69.0977 10.5132 69.0772 10.4642 69.0446 10.407C69.0118 10.3497 68.9668 10.2803 68.9096 10.1985C68.7951 10.035 68.6029 9.95328 68.333 9.95328C68.0958 9.95328 67.8996 10.0391 67.7442 10.2108C67.5969 10.3825 67.5233 10.595 67.5233 10.8484V11.2162V11.3266C67.5233 11.4901 67.5479 11.6208 67.5969 11.7189C67.6542 11.8088 67.7851 11.911 67.9895 12.0255C68.055 12.0582 68.1531 12.1031 68.284 12.1603C68.423 12.2094 68.5906 12.2707 68.7869 12.3443C69.1795 12.4751 69.5312 12.708 69.842 13.0432C70.1527 13.3783 70.3081 13.8198 70.3081 14.3674V15.0296C70.3081 15.3157 70.2795 15.5568 70.2223 15.753C70.1732 15.9492 70.0055 16.2352 69.7192 16.6113C69.433 16.9709 68.9546 17.1508 68.284 17.1508C67.5724 17.1508 67.0572 16.9219 66.7382 16.4641C66.4193 15.9982 66.2598 15.52 66.2598 15.0296V14.7353H67.4497L67.4498 15.0296Z" fill="white"/>
<path d="M71.8198 17.0772V9.95329H70.4336V8.86203H74.3961V9.95329H72.9853V17.0772H71.8198Z" fill="white"/>
<path d="M75.0361 17.0772V8.86203H76.2015V17.0772H75.0361Z" fill="white"/>
<path d="M80.9739 15.005C80.9739 15.2666 80.9575 15.4914 80.9248 15.6794C80.9003 15.8674 80.8185 16.0718 80.6794 16.2925C80.6058 16.4069 80.5118 16.5173 80.3973 16.6235C80.291 16.7216 80.1683 16.8115 80.0293 16.8933C79.8984 16.9668 79.7553 17.0282 79.5999 17.0772C79.4445 17.1263 79.2932 17.1508 79.146 17.1508C78.778 17.1508 78.4426 17.0731 78.14 16.9178C77.8456 16.7625 77.6289 16.5663 77.4899 16.3293C77.3508 16.0922 77.2609 15.8715 77.22 15.6671C77.1873 15.4628 77.1709 15.2421 77.1709 15.005V10.7748C77.1709 10.5459 77.1913 10.3416 77.2322 10.1617C77.2813 9.97371 77.3794 9.77344 77.5266 9.5609C77.6738 9.34837 77.8824 9.16856 78.1523 9.02143C78.4222 8.86611 78.7043 8.78845 78.9988 8.78845C79.5631 8.78845 80.0333 8.97644 80.4095 9.35247C80.7857 9.72031 80.9738 10.1944 80.9738 10.7748V11.2162H79.8084V10.7748C79.8084 10.5459 79.743 10.3538 79.6121 10.1985C79.4894 10.0432 79.3054 9.96555 79.0601 9.96555C78.8311 9.96555 78.6512 10.0432 78.5203 10.1985C78.3976 10.3538 78.3363 10.5459 78.3363 10.7748V15.3238C78.3526 15.4465 78.4099 15.5854 78.508 15.7407C78.6225 15.9042 78.8107 15.986 79.0724 15.986C79.3504 15.986 79.5344 15.9124 79.6244 15.7653C79.7143 15.6181 79.7675 15.5118 79.7839 15.4464C79.8002 15.3729 79.8084 15.2748 79.8084 15.1522V14.7353H80.9738L80.9739 15.005Z" fill="white"/>
<path d="M85.391 15.9001V17.0772H81.8701V8.86203H85.391V9.94102H83.0356V12.3688H85.0966V13.4846H83.0356V15.9001H85.391Z" fill="white"/>
<path d="M30.9385 28.4061L32.7786 20.1909H33.7968L35.6369 28.4061H34.3734L34.0421 26.6404H32.521L32.1775 28.4061H30.9385ZM32.7295 25.5492H33.8336L33.2816 22.5574L32.7295 25.5492Z" fill="white"/>
<path d="M39.2419 28.4061L37.414 23.4157V28.4061H36.2363V20.1909H37.3527L39.1683 25.1691V20.1909H40.3459V28.4061H39.2419Z" fill="white"/>
<path d="M43.0795 20.1909C43.6111 20.1909 44.065 20.3789 44.4412 20.7549C44.8256 21.1228 45.0178 21.5723 45.0178 22.1037V26.3707C45.0178 26.9756 44.8338 27.4661 44.4657 27.8421C44.0977 28.2181 43.6234 28.4061 43.0427 28.4061H41.2148V20.1909H43.0795ZM43.8524 26.3707V22.1037C43.8524 21.8748 43.7665 21.6827 43.5947 21.5274C43.4312 21.3721 43.2308 21.2944 42.9936 21.2944H42.3802V27.3148H42.9569C43.5539 27.3148 43.8524 27.0001 43.8524 26.3707Z" fill="white"/>
<path d="M48.2496 26.3584C48.2496 26.4402 48.2496 26.5096 48.2496 26.5668C48.2496 26.6241 48.2537 26.6731 48.2619 26.714C48.2782 26.7957 48.3396 26.9143 48.4459 27.0696C48.5604 27.2331 48.7648 27.3148 49.0592 27.3148C49.2228 27.3148 49.3741 27.2821 49.5132 27.2167C49.6522 27.1432 49.7544 27.0491 49.8199 26.9347C49.8689 26.8448 49.8976 26.759 49.9057 26.6772C49.9221 26.5955 49.9302 26.5219 49.9302 26.4565V26.3461V25.7699V25.6595C49.9302 25.4796 49.8975 25.3407 49.8321 25.2426C49.7667 25.1363 49.6195 25.0178 49.3905 24.887C49.2351 24.8053 48.957 24.6909 48.5563 24.5437C48.1555 24.3966 47.8202 24.1636 47.5503 23.8448C47.2804 23.526 47.1455 23.0928 47.1455 22.5451V22.1772C47.1455 21.6132 47.3336 21.1309 47.7098 20.7304C48.0942 20.3217 48.5603 20.1173 49.1083 20.1173C49.6808 20.1173 50.1552 20.3176 50.5314 20.7181C50.9158 21.1186 51.1079 21.605 51.1079 22.1772V22.5451H49.9302V22.1772C49.9302 22.12 49.9262 22.0669 49.918 22.0178C49.918 21.9688 49.9138 21.9238 49.9057 21.8829C49.8975 21.8421 49.877 21.793 49.8444 21.7358C49.8116 21.6786 49.7666 21.6091 49.7094 21.5274C49.5949 21.3639 49.4027 21.2821 49.1328 21.2821C48.8956 21.2821 48.6994 21.368 48.544 21.5396C48.3968 21.7113 48.3231 21.9238 48.3231 22.1772V22.5451V22.6554C48.3231 22.8189 48.3477 22.9497 48.3968 23.0478C48.454 23.1377 48.5849 23.2399 48.7893 23.3543C48.8548 23.3871 48.9529 23.432 49.0838 23.4892C49.2228 23.5383 49.3904 23.5996 49.5867 23.6731C49.9793 23.8039 50.331 24.0369 50.6418 24.372C50.9525 24.7072 51.1079 25.1486 51.1079 25.6963V26.3584C51.1079 26.6445 51.0793 26.8856 51.0221 27.0818C50.973 27.278 50.8053 27.5641 50.5191 27.9402C50.2328 28.2998 49.7544 28.4797 49.0838 28.4797C48.3722 28.4797 47.857 28.2508 47.538 27.793C47.2191 27.3271 47.0596 26.8489 47.0596 26.3584V26.0641H48.2495L48.2496 26.3584Z" fill="white"/>
<path d="M52.7964 28.4061V21.2822H51.4102V20.1909H55.3726V21.2822H53.9618V28.4061H52.7964Z" fill="white"/>
<path d="M55.8818 28.4061V20.1909H57.9428C58.4826 20.1909 58.9365 20.3789 59.3045 20.7549C59.6807 21.131 59.8689 21.5928 59.8689 22.1405V22.9007C59.8689 23.6609 59.5458 24.2413 58.8997 24.6418L60.151 28.4061H58.8997L57.7956 24.8871H57.0596V28.4061H55.8818ZM58.4949 23.5874C58.5685 23.4974 58.6175 23.3953 58.6421 23.2808C58.6748 23.1664 58.6912 23.0397 58.6912 22.9007V22.1405C58.6912 21.8871 58.6217 21.6827 58.4826 21.5274C58.3436 21.3639 58.1473 21.2822 57.8938 21.2822H57.0596V23.8448H57.8815C58.1269 23.8448 58.3313 23.759 58.4949 23.5874H58.4949Z" fill="white"/>
<path d="M60.8899 20.9633C61.078 20.7018 61.3152 20.4974 61.6014 20.3503C61.8959 20.1949 62.1985 20.1173 62.5092 20.1173C62.8118 20.1173 63.094 20.1786 63.3557 20.3012C63.6256 20.4238 63.8505 20.5914 64.0304 20.8039C64.2103 21.0165 64.333 21.2372 64.3985 21.4661C64.4639 21.6868 64.4966 21.9279 64.4966 22.1895V26.3707C64.4966 26.6159 64.472 26.8325 64.423 27.0205C64.3821 27.2085 64.284 27.417 64.1286 27.6459C63.9813 27.8748 63.7646 28.0709 63.4784 28.2344C63.2003 28.3979 62.8895 28.4797 62.546 28.4797C62.3497 28.4797 62.1617 28.4552 61.9817 28.4061C61.8018 28.3489 61.6342 28.2753 61.4788 28.1854C61.3234 28.0955 61.1843 27.9933 61.0616 27.8789C60.9472 27.7644 60.8572 27.6459 60.7918 27.5232C60.6691 27.2698 60.5955 27.0655 60.571 26.9102C60.5464 26.7549 60.5342 26.575 60.5342 26.3707V22.1895C60.5342 21.9442 60.5587 21.7276 60.6078 21.5396C60.665 21.3434 60.7591 21.1513 60.8899 20.9633ZM63.1717 21.6132C63.0163 21.3843 62.8037 21.2699 62.5338 21.2699C62.3948 21.2699 62.2557 21.3107 62.1167 21.3925C61.9858 21.4661 61.8918 21.5519 61.8345 21.65C61.7855 21.7481 61.7527 21.8462 61.7364 21.9443C61.72 22.0424 61.7119 22.1241 61.7119 22.1895V26.3707C61.7119 26.4115 61.7119 26.4565 61.7119 26.5055C61.7119 26.5464 61.716 26.5913 61.7242 26.6404C61.7324 26.7222 61.7978 26.857 61.9204 27.0451C62.0431 27.2167 62.2476 27.3025 62.5338 27.3025C62.681 27.3025 62.8119 27.2699 62.9264 27.2045C63.0491 27.1309 63.1349 27.0491 63.184 26.9592C63.2413 26.8611 63.2781 26.7712 63.2944 26.6895C63.3108 26.6077 63.3189 26.5015 63.3189 26.3707V22.1895C63.3189 22.026 63.3108 21.9116 63.2944 21.8462C63.2862 21.7808 63.2453 21.7031 63.1717 21.6132H63.1717Z" fill="white"/>
<path d="M68.5055 28.4061L66.6777 23.4157V28.4061H65.5V20.1909H66.6163L68.4319 25.1691V20.1909H69.6096V28.4061H68.5055Z" fill="white"/>
<path d="M74.002 27.5478C73.8139 27.8421 73.5726 28.0709 73.2782 28.2344C72.9838 28.3979 72.6607 28.4797 72.3091 28.4797C71.9983 28.4797 71.6957 28.4061 71.4013 28.259C71.115 28.1118 70.8901 27.932 70.7266 27.7194C70.5712 27.4987 70.4648 27.278 70.4076 27.0573C70.3585 26.8366 70.334 26.5873 70.334 26.3094V22.2017C70.334 21.9974 70.3544 21.793 70.3953 21.5887C70.4526 21.3843 70.6039 21.0941 70.8492 20.7181C71.1027 20.3176 71.6016 20.1173 72.3458 20.1173C72.673 20.1173 72.9797 20.1949 73.2659 20.3503C73.5522 20.5056 73.7689 20.6977 73.9161 20.9265C74.0715 21.1472 74.1696 21.3598 74.2105 21.5642C74.2596 21.7603 74.2841 21.9729 74.2841 22.2017V22.5451H73.1187V22.2017C73.1187 22.1364 73.1146 22.0791 73.1064 22.0301C73.1064 21.9728 73.1023 21.9238 73.0941 21.8829C73.0859 21.8094 73.0246 21.6908 72.9101 21.5274C72.7956 21.3639 72.6034 21.2821 72.3335 21.2821C72.0146 21.2821 71.8019 21.368 71.6956 21.5396C71.5975 21.7113 71.5402 21.838 71.5239 21.9197C71.5075 22.0015 71.4994 22.0955 71.4994 22.2017V26.3094C71.4994 26.3911 71.4994 26.4606 71.4994 26.5178C71.4994 26.575 71.5034 26.6241 71.5116 26.6649C71.5198 26.7303 71.5812 26.857 71.6957 27.0451C71.802 27.2167 72.0105 27.3025 72.3213 27.3025C72.6403 27.3025 72.8447 27.2167 72.9347 27.0451C72.9837 26.9551 73.0206 26.8816 73.0451 26.8244C73.0696 26.759 73.086 26.7017 73.0942 26.6527C73.1105 26.6036 73.1187 26.5546 73.1187 26.5055C73.1187 26.4483 73.1187 26.3829 73.1187 26.3094V24.8748H72.1741V23.8448H74.2841V26.3094C74.2841 26.481 74.28 26.6282 74.2718 26.7508C74.2637 26.8652 74.2473 26.9674 74.2227 27.0573C74.1982 27.1473 74.1655 27.2331 74.1246 27.3148C74.0919 27.3884 74.051 27.466 74.0019 27.5478H74.002Z" fill="white"/>
<path d="M31.3281 39.735V31.5198H32.4936V39.735H31.3281Z" fill="white"/>
<path d="M36.4841 39.735L34.6562 34.7446V39.735H33.4785V31.5198H34.5949L36.4105 36.498V31.5198H37.5882V39.735H36.4841Z" fill="white"/>
<path d="M39.2691 37.6873C39.2691 37.7691 39.2691 37.8385 39.2691 37.8958C39.2691 37.953 39.2732 38.002 39.2814 38.0429C39.2977 38.1246 39.3591 38.2432 39.4654 38.3985C39.5799 38.562 39.7843 38.6437 40.0788 38.6437C40.2423 38.6437 40.3936 38.611 40.5327 38.5456C40.6717 38.472 40.7739 38.378 40.8394 38.2636C40.8884 38.1737 40.9171 38.0878 40.9252 38.0061C40.9416 37.9243 40.9498 37.8508 40.9498 37.7854V37.675V37.0987V36.9884C40.9498 36.8086 40.917 36.6696 40.8516 36.5715C40.7862 36.4653 40.639 36.3467 40.41 36.2159C40.2546 36.1342 39.9765 36.0197 39.5758 35.8726C39.1751 35.7255 38.8397 35.4925 38.5698 35.1737C38.2999 34.8549 38.165 34.4217 38.165 33.874V33.5061C38.165 32.9421 38.3531 32.4598 38.7293 32.0593C39.1137 31.6506 39.5799 31.4462 40.1278 31.4462C40.7003 31.4462 41.1747 31.6465 41.5509 32.047C41.9353 32.4476 42.1274 32.9339 42.1274 33.5061V33.874H40.9498V33.5061C40.9498 33.4489 40.9457 33.3958 40.9375 33.3467C40.9375 33.2977 40.9334 33.2527 40.9252 33.2119C40.917 33.171 40.8966 33.122 40.8639 33.0647C40.8311 33.0075 40.7862 32.938 40.7289 32.8563C40.6144 32.6928 40.4222 32.6111 40.1523 32.6111C39.9152 32.6111 39.7189 32.6969 39.5635 32.8686C39.4163 33.0402 39.3427 33.2527 39.3427 33.5061V33.874V33.9844C39.3427 34.1478 39.3672 34.2786 39.4163 34.3767C39.4735 34.4666 39.6044 34.5688 39.8088 34.6832C39.8743 34.716 39.9724 34.7609 40.1033 34.8181C40.2423 34.8672 40.41 34.9285 40.6062 35.002C40.9988 35.1328 41.3505 35.3658 41.6613 35.7009C41.972 36.0361 42.1274 36.4775 42.1274 37.0252V37.6873C42.1274 37.9734 42.0988 38.2145 42.0416 38.4107C41.9925 38.6069 41.8248 38.893 41.5386 39.269C41.2524 39.6287 40.7739 39.8085 40.1033 39.8085C39.3917 39.8085 38.8765 39.5796 38.5576 39.1219C38.2386 38.6559 38.0791 38.1778 38.0791 37.6873V37.393H39.2691L39.2691 37.6873Z" fill="white"/>
<path d="M43.7573 39.735V32.6111H42.3711V31.5198H46.3336V32.6111H44.9228V39.735H43.7573Z" fill="white"/>
<path d="M46.9141 39.735V31.5198H48.0795V39.735H46.9141Z" fill="white"/>
<path d="M50.0669 39.735V32.6111H48.6807V31.5198H52.643V32.6111H51.2323V39.735H50.0669Z" fill="white"/>
<path d="M56.8399 38.8766C56.66 39.1545 56.4269 39.3793 56.1407 39.551C55.8626 39.7227 55.5518 39.8085 55.2083 39.8085C55.0366 39.8085 54.8648 39.784 54.6931 39.7349C54.5295 39.6859 54.3741 39.6246 54.2269 39.551C54.0797 39.4693 53.9488 39.3794 53.8343 39.2813C53.7198 39.175 53.6339 39.0646 53.5767 38.9502C53.454 38.7213 53.3722 38.5211 53.3313 38.3494C53.2986 38.1778 53.2822 37.9938 53.2822 37.7976V31.5198H54.4599V37.7976C54.4599 37.8549 54.4599 37.908 54.4599 37.957C54.4681 37.9979 54.4763 38.0388 54.4845 38.0796C54.4927 38.145 54.554 38.2595 54.6685 38.423C54.7748 38.5701 54.9588 38.6437 55.2205 38.6437C55.4577 38.6437 55.6336 38.5578 55.7481 38.3862C55.8707 38.2063 55.9321 38.0102 55.9321 37.7976V31.5198H57.1098V37.7976C57.1098 37.9938 57.0894 38.1818 57.0485 38.3616C57.0076 38.5415 56.938 38.7131 56.8399 38.8766H56.8399Z" fill="white"/>
<path d="M59.0122 39.735V32.6111H57.626V31.5198H61.5884V32.6111H60.1777V39.735H59.0122Z" fill="white"/>
<path d="M62.1689 39.735V31.5198H63.3344V39.735H62.1689Z" fill="white"/>
<path d="M64.7063 32.2922C64.8945 32.0307 65.1316 31.8263 65.4179 31.6792C65.7123 31.5239 66.0149 31.4462 66.3257 31.4462C66.6283 31.4462 66.9105 31.5075 67.1722 31.6301C67.4421 31.7527 67.667 31.9203 67.8469 32.1328C68.0268 32.3454 68.1495 32.5661 68.2149 32.795C68.2804 33.0157 68.3131 33.2568 68.3131 33.5184V37.6995C68.3131 37.9448 68.2885 38.1614 68.2395 38.3494C68.1986 38.5374 68.1005 38.7459 67.945 38.9747C67.7978 39.2036 67.5811 39.3998 67.2948 39.5633C67.0168 39.7268 66.706 39.8085 66.3625 39.8085C66.1662 39.8085 65.9781 39.784 65.7982 39.735C65.6183 39.6777 65.4506 39.6042 65.2952 39.5143C65.1398 39.4243 65.0008 39.3222 64.8781 39.2077C64.7636 39.0933 64.6737 38.9748 64.6082 38.8521C64.4855 38.5987 64.4119 38.3944 64.3874 38.2391C64.3629 38.0837 64.3506 37.9039 64.3506 37.6995V33.5184C64.3506 33.2732 64.3751 33.0566 64.4242 32.8686C64.4814 32.6724 64.5755 32.4803 64.7063 32.2922ZM66.9881 32.9421C66.8327 32.7133 66.6201 32.5988 66.3502 32.5988C66.2112 32.5988 66.0722 32.6397 65.9331 32.7214C65.8023 32.795 65.7082 32.8808 65.651 32.9789C65.6019 33.077 65.5692 33.1751 65.5528 33.2732C65.5365 33.3713 65.5283 33.453 65.5283 33.5184V37.6995C65.5283 37.7404 65.5283 37.7854 65.5283 37.8345C65.5283 37.8753 65.5324 37.9203 65.5406 37.9693C65.5488 38.0511 65.6142 38.1859 65.7369 38.3739C65.8595 38.5456 66.064 38.6314 66.3503 38.6314C66.4975 38.6314 66.6283 38.5987 66.7428 38.5333C66.8655 38.4598 66.9514 38.378 67.0004 38.2881C67.0577 38.19 67.0945 38.1001 67.1109 38.0184C67.1272 37.9366 67.1354 37.8303 67.1354 37.6995V33.5184C67.1354 33.3549 67.1272 33.2405 67.1109 33.1751C67.1027 33.1097 67.0618 33.032 66.9882 32.9421H66.9881Z" fill="white"/>
<path d="M72.2028 39.735L70.3749 34.7446V39.735H69.1973V31.5198H70.3136L72.1292 36.498V31.5198H73.3069V39.735H72.2028Z" fill="white"/>
<path d="M75.0474 37.6873C75.0474 37.7691 75.0474 37.8385 75.0474 37.8958C75.0474 37.953 75.0515 38.002 75.0597 38.0429C75.076 38.1246 75.1374 38.2432 75.2437 38.3985C75.3582 38.562 75.5627 38.6437 75.8571 38.6437C76.0207 38.6437 76.172 38.611 76.311 38.5456C76.45 38.472 76.5523 38.378 76.6177 38.2636C76.6668 38.1737 76.6954 38.0878 76.7036 38.0061C76.7199 37.9243 76.7281 37.8508 76.7281 37.7854V37.675V37.0987V36.9884C76.7281 36.8086 76.6954 36.6696 76.6299 36.5715C76.5645 36.4653 76.4173 36.3467 76.1883 36.2159C76.0329 36.1342 75.7548 36.0197 75.3541 35.8726C74.9533 35.7255 74.618 35.4925 74.3482 35.1737C74.0783 34.8549 73.9433 34.4217 73.9433 33.874V33.5061C73.9433 32.9421 74.1314 32.4598 74.5076 32.0593C74.892 31.6506 75.3582 31.4462 75.9062 31.4462C76.4786 31.4462 76.953 31.6465 77.3292 32.047C77.7136 32.4476 77.9058 32.9339 77.9058 33.5061V33.874H76.7281V33.5061C76.7281 33.4489 76.724 33.3958 76.7158 33.3467C76.7158 33.2977 76.7117 33.2527 76.7035 33.2119C76.6953 33.171 76.6749 33.122 76.6422 33.0647C76.6094 33.0075 76.5645 32.938 76.5072 32.8563C76.3927 32.6928 76.2006 32.6111 75.9307 32.6111C75.6935 32.6111 75.4972 32.6969 75.3418 32.8686C75.1946 33.0402 75.121 33.2527 75.121 33.5061V33.874V33.9844C75.121 34.1478 75.1455 34.2786 75.1946 34.3767C75.2519 34.4666 75.3827 34.5688 75.5871 34.6832C75.6526 34.716 75.7507 34.7609 75.8816 34.8181C76.0206 34.8672 76.1883 34.9285 76.3846 35.002C76.7771 35.1328 77.1288 35.3658 77.4396 35.7009C77.7503 36.0361 77.9058 36.4775 77.9058 37.0252V37.6873C77.9058 37.9734 77.8771 38.2145 77.8199 38.4107C77.7708 38.6069 77.6032 38.893 77.3169 39.269C77.0307 39.6287 76.5522 39.8085 75.8816 39.8085C75.17 39.8085 74.6548 39.5796 74.3358 39.1219C74.0169 38.6559 73.8574 38.1778 73.8574 37.6873V37.393H75.0474V37.6873Z" fill="white"/>
<path d="M10.987 28.5083V11.7846L8.16895 13.8971V10.9045L10.987 8.85065H13.7758V28.5083H10.987Z" fill="white"/>
<path d="M24.1476 18.4448C24.3042 18.7186 24.402 19.0023 24.4412 19.2957C24.4999 19.5891 24.5293 19.9509 24.5293 20.3812V24.1367C24.5293 24.5866 24.4803 25.0365 24.3825 25.4864C24.2846 25.9167 23.9911 26.5231 23.5018 27.3055C22.993 28.1074 22.0341 28.5671 20.6251 28.6844C19.7445 28.6844 18.9421 28.4986 18.218 28.1269C17.5135 27.7357 17.0145 27.2761 16.7209 26.748C16.447 26.2003 16.2708 25.7406 16.1925 25.369C16.1338 24.9974 16.1045 24.5866 16.1045 24.1367V21.056C16.1045 20.6257 16.1143 20.3226 16.1339 20.1465C16.1534 19.9509 16.2219 19.6966 16.3393 19.3837L20.2435 8.85065H23.4138L20.2435 17.0952C20.5957 16.9583 21.0165 16.8898 21.5058 16.8898H21.7699C22.8463 17.0463 23.6388 17.5646 24.1476 18.4448ZM21.4764 19.9411C21.1828 19.5499 20.7914 19.3544 20.3022 19.3544C19.8717 19.3544 19.539 19.5108 19.3041 19.8238C19.0693 20.1367 18.9519 20.5475 18.9519 21.056V24.1367C18.9519 24.5475 19.0497 24.9387 19.2454 25.3103C19.4607 25.6624 19.8227 25.8384 20.3315 25.8384H20.5077C21.0165 25.8384 21.3492 25.6624 21.5057 25.3103C21.6623 24.9583 21.7406 24.567 21.7406 24.1367V21.056C21.7406 20.8018 21.721 20.5964 21.6819 20.4399C21.6623 20.2639 21.5938 20.0976 21.4764 19.9411H21.4764Z" fill="white"/>
<path fill-rule="evenodd" clip-rule="evenodd" d="M71.2909 43.952C69.0637 43.9317 68.7265 45.2147 68.6801 46.6988C70.9073 46.7191 71.2445 45.4361 71.2909 43.952ZM65.3042 44.3023C64.0141 46.1169 64.8751 47.1272 66.0667 48.0138C67.3569 46.1992 66.4958 45.1889 65.3042 44.3023ZM62.7076 47.0195C61.4255 48.8399 62.2911 49.8459 63.4867 50.7272C64.7687 48.9068 63.9031 47.9008 62.7076 47.0195ZM67.8509 47.3762C67.7741 47.3753 67.7 47.4043 67.6442 47.457C65.9025 49.0563 64.395 50.7456 63.5676 52.676C63.3729 53.1301 63.2207 53.599 63.1093 54.0808C61.9502 52.9245 61.5287 51.6902 60.0326 51.7163C56.4494 51.7791 54.5854 57.3494 49.6047 57.3844C42.5659 57.4338 43.1238 48.8963 29.8823 48.8272C37.8138 55.1717 29.7697 61.0013 41.5181 65.504C36.5324 66.4351 36.4223 70.6967 29.8477 68.5857C32.9119 69.7742 36.2171 73.6423 42.3871 73.8662V78.4912C35.3647 78.2822 28.5538 77.9986 28.5538 77.9986V80.9326C28.5538 80.9326 44.9412 80.2244 53.1718 80.2244C55.895 80.2244 58.1591 80.7744 59.1328 81.0532V82.9096C59.1328 83.5902 59.6816 84.1374 60.3624 84.1374H67.2951C67.976 84.1374 68.5248 83.5902 68.5248 82.9096V76.0575C68.5248 75.377 67.976 74.8297 67.2951 74.8297H60.3624C59.6816 74.8297 59.1328 75.377 59.1328 76.0575V77.8767C58.1591 78.1555 55.895 78.7067 53.1718 78.7067C51.3221 78.7067 49.0358 78.6685 46.6409 78.6131V73.6699C58.6555 72.2838 58.2464 64.6207 58.2034 62.8702C58.0606 57.0462 60.7725 55.7962 62.9245 55.4676C62.8695 56.6477 63.0713 57.9048 63.6189 59.2523C63.6336 59.2883 63.6552 59.321 63.6825 59.3486C63.7098 59.3763 63.7423 59.3982 63.7781 59.4133C63.814 59.4284 63.8524 59.4362 63.8913 59.4364C63.9301 59.4367 63.9686 59.4293 64.0046 59.4146C64.0406 59.3999 64.0734 59.3784 64.101 59.3511C64.1286 59.3237 64.1506 59.2912 64.1657 59.2554C64.1808 59.2196 64.1886 59.1812 64.1889 59.1424C64.1891 59.1035 64.1817 59.065 64.167 59.0291C63.6326 57.7142 63.4464 56.52 63.5136 55.4035C64.0375 55.3557 64.5206 55.3355 64.8627 55.3009C64.3671 55.0783 63.9631 54.8176 63.6176 54.5427C63.7219 53.981 63.8841 53.4363 64.1105 52.9082C64.8843 51.103 66.3309 49.4669 68.0447 47.8932C68.0895 47.8536 68.1213 47.8013 68.1358 47.7432C68.1502 47.6852 68.1467 47.6241 68.1257 47.5681C68.1047 47.512 68.0672 47.4637 68.0181 47.4295C67.969 47.3952 67.9107 47.3766 67.8509 47.3762ZM69.5375 48.5603C68.8268 48.5981 68.2142 49.0818 67.6263 49.6752C69.2431 51.2063 70.365 50.4967 71.4103 49.4417C70.7029 48.7719 70.0904 48.5309 69.5375 48.5603ZM67.1821 51.3866C66.5577 51.3868 65.9416 51.7179 65.3286 52.1371C66.6268 53.9461 67.8623 53.4606 69.0883 52.6221C68.4392 51.7176 67.8065 51.3865 67.1821 51.3866ZM59.5384 71.453C58.8575 71.453 58.3087 72.0015 58.3087 72.6821V72.9322C58.3087 73.6128 58.8575 74.16 59.5384 74.16H68.0627C68.7435 74.16 69.2911 73.6128 69.2911 72.9322V72.6821C69.2911 72.0015 68.7435 71.453 68.0627 71.453H59.5384ZM45.2854 73.7944V78.5797C44.7678 78.5665 44.2647 78.5469 43.7425 78.5323V73.8688C44.2758 73.8541 44.7906 73.8294 45.2854 73.7944ZM26.1086 77.1274C25.4277 77.1274 24.8789 77.6747 24.8789 78.3552V80.4348C24.8789 81.1154 25.4277 81.6626 26.1086 81.6626H26.4552C27.136 81.6626 27.6835 81.1154 27.6835 80.4348V78.3552C27.6835 77.6747 27.136 77.1274 26.4552 77.1274H26.1086ZM59.5384 84.6185C58.8575 84.6185 58.3087 85.167 58.3087 85.8476V86.0977C58.3087 86.7783 58.8575 87.3268 59.5384 87.3268H68.0627C68.7435 87.3268 69.2911 86.7783 69.2911 86.0977V85.8476C69.2911 85.167 68.7435 84.6185 68.0627 84.6185H59.5384Z" fill="white"/>
</svg>
