<svg width="98" height="98" viewBox="0 0 98 98" fill="none" xmlns="http://www.w3.org/2000/svg">
<path fill-rule="evenodd" clip-rule="evenodd" d="M0.772851 0.300751H97.0122C97.3132 0.300751 97.5556 0.542977 97.5556 0.843833V97.1932C97.5556 97.494 97.3132 97.7362 97.0122 97.7362H0.772851C0.471841 97.7362 0.229492 97.494 0.229492 97.1932V0.843833C0.229492 0.542977 0.471841 0.300751 0.772851 0.300751Z" fill="#183668"/>
<path d="M31.918 17.0789V8.86377H33.844H33.8686C34.1139 8.86377 34.347 8.91691 34.5678 9.02317C34.7886 9.12126 34.9849 9.25202 35.1567 9.41551C35.3284 9.57899 35.4634 9.76702 35.5615 9.97955C35.6678 10.1839 35.7251 10.3964 35.7332 10.6171V11.8065V11.9291C35.7332 12.1988 35.6801 12.4522 35.5738 12.6893C35.4756 12.9182 35.3407 13.1184 35.1689 13.2901C34.9972 13.4618 34.7927 13.5967 34.5555 13.6947C34.3265 13.7928 34.0812 13.8419 33.8195 13.8419H33.7091H33.0957V17.0789H31.918ZM34.4084 12.4931C34.482 12.4196 34.5269 12.3419 34.5433 12.2602C34.5678 12.1784 34.5801 12.0762 34.5801 11.9536V10.7397C34.5801 10.5109 34.5106 10.3229 34.3715 10.1757C34.2325 10.0204 34.0444 9.94275 33.8072 9.94275H33.0957V12.7261H33.7091C33.8726 12.7261 34.0035 12.7138 34.1017 12.6893C34.208 12.6566 34.3102 12.5912 34.4084 12.4931Z" fill="white"/>
<path d="M35.8232 17.0772L37.6634 8.86203H38.6817L40.5219 17.0772H39.2583L38.927 15.3115H37.4058L37.0623 17.0772H35.8232ZM37.6144 14.2203H38.7185L38.1664 11.2285L37.6144 14.2203Z" fill="white"/>
<path d="M41.1084 17.0772V8.86203H43.1693C43.7091 8.86203 44.163 9.05002 44.5311 9.42604C44.9073 9.80206 45.0953 10.2639 45.0953 10.8116V11.5718C45.0953 12.332 44.7723 12.9124 44.1262 13.3129L45.3775 17.0772H44.1262L43.0221 13.5582H42.2861V17.0772H41.1084ZM43.7214 12.2584C43.795 12.1685 43.8441 12.0663 43.8686 11.9519C43.9013 11.8375 43.9177 11.7107 43.9177 11.5718V10.8116C43.9177 10.5582 43.8482 10.3538 43.7091 10.1985C43.5701 10.035 43.3738 9.95329 43.1203 9.95329H42.2861V12.5159H43.108C43.3534 12.5159 43.5578 12.4301 43.7214 12.2584Z" fill="white"/>
<path d="M46.7329 17.0772V9.95329H45.3467V8.86203H49.3091V9.95329H47.8983V17.0772H46.7329Z" fill="white"/>
<path d="M52.7771 17.0772L50.9492 12.0868V17.0772H49.7715V8.86203H50.8879L52.7035 13.8402V8.86203H53.8812V17.0772H52.7771Z" fill="white"/>
<path d="M58.0951 15.9001V17.0772H54.5742V8.86203H58.0951V9.94102H55.7397V12.3688H57.8007V13.4846H55.7397V15.9001H58.0951Z" fill="white"/>
<path d="M58.6318 17.0772V8.86203H60.6928C61.2326 8.86203 61.6864 9.05002 62.0545 9.42604C62.4307 9.80206 62.6188 10.2639 62.6188 10.8116V11.5718C62.6188 12.332 62.2958 12.9124 61.6497 13.3129L62.9009 17.0772H61.6497L60.5456 13.5582H59.8095V17.0772H58.6318ZM61.2448 12.2584C61.3184 12.1685 61.3675 12.0663 61.392 11.9519C61.4248 11.8375 61.4411 11.7107 61.4411 11.5718V10.8116C61.4411 10.5582 61.3716 10.3538 61.2326 10.1985C61.0936 10.035 60.8973 9.95329 60.6437 9.95329H59.8095V12.5159H60.6315C60.8768 12.5159 61.0813 12.4301 61.2449 12.2584H61.2448Z" fill="white"/>
<path d="M64.2417 15.0296C64.2417 15.1113 64.2417 15.1808 64.2417 15.238C64.2417 15.2952 64.2458 15.3443 64.254 15.3851C64.2704 15.4669 64.3317 15.5854 64.438 15.7407C64.5525 15.9042 64.757 15.986 65.0514 15.986C65.215 15.986 65.3663 15.9532 65.5053 15.8879C65.6443 15.8143 65.7466 15.7203 65.812 15.6058C65.8611 15.5159 65.8897 15.4301 65.8979 15.3483C65.9142 15.2666 65.9224 15.193 65.9224 15.1276V15.0173V14.441V14.3306C65.9224 14.1508 65.8896 14.0119 65.8242 13.9138C65.7588 13.8075 65.6116 13.689 65.3826 13.5582C65.2272 13.4764 64.9492 13.362 64.5484 13.2148C64.1477 13.0677 63.8124 12.8348 63.5425 12.516C63.2726 12.1972 63.1377 11.7639 63.1377 11.2162V10.8484C63.1377 10.2843 63.3258 9.80208 63.702 9.40154C64.0863 8.99282 64.5525 8.78845 65.1004 8.78845C65.6729 8.78845 66.1473 8.98873 66.5235 9.38927C66.9079 9.78981 67.1 10.2762 67.1 10.8484V11.2162H65.9224V10.8484C65.9224 10.7912 65.9183 10.738 65.9101 10.689C65.9101 10.6399 65.906 10.595 65.8978 10.5541C65.8896 10.5132 65.8692 10.4642 65.8365 10.407C65.8038 10.3497 65.7588 10.2803 65.7015 10.1985C65.587 10.035 65.3948 9.95328 65.125 9.95328C64.8878 9.95328 64.6915 10.0391 64.5361 10.2108C64.3889 10.3825 64.3153 10.595 64.3153 10.8484V11.2162V11.3266C64.3153 11.4901 64.3398 11.6208 64.3889 11.7189C64.4462 11.8088 64.577 11.911 64.7815 12.0255C64.8469 12.0582 64.945 12.1031 65.0759 12.1603C65.2149 12.2094 65.3826 12.2707 65.5789 12.3443C65.9714 12.4751 66.3231 12.708 66.6339 13.0432C66.9446 13.3783 67.1 13.8198 67.1 14.3674V15.0296C67.1 15.3157 67.0714 15.5568 67.0142 15.753C66.9651 15.9492 66.7974 16.2352 66.5112 16.6113C66.2249 16.9709 65.7465 17.1508 65.0759 17.1508C64.3644 17.1508 63.8492 16.9219 63.5302 16.4641C63.2113 15.9982 63.0518 15.52 63.0518 15.0296V14.7353H64.2417L64.2417 15.0296Z" fill="white"/>
<path d="M67.7852 17.0772V8.86203H68.9506V12.3688H70.4473V8.86203H71.6127V17.0772H70.4473V13.411H68.9506V17.0772H67.7852Z" fill="white"/>
<path d="M72.7715 17.0772V8.86203H73.937V17.0772H72.7715Z" fill="white"/>
<path d="M74.9209 17.0772V8.86203H76.8469H76.8714C77.1168 8.86203 77.3498 8.91517 77.5706 9.02143C77.7915 9.11953 77.9878 9.25029 78.1595 9.41377C78.3313 9.57726 78.4662 9.76529 78.5643 9.97782C78.6706 10.1822 78.7279 10.3947 78.7361 10.6154V11.8048V11.9274C78.7361 12.1971 78.6829 12.4505 78.5766 12.6876C78.4785 12.9165 78.3435 13.1167 78.1718 13.2884C78 13.4601 77.7956 13.5949 77.5584 13.693C77.3294 13.7911 77.084 13.8402 76.8223 13.8402H76.7119H76.0985V17.0772H74.9209ZM77.4112 12.4914C77.4848 12.4178 77.5298 12.3402 77.5461 12.2584C77.5707 12.1767 77.583 12.0745 77.583 11.9519V10.738C77.583 10.5091 77.5134 10.3211 77.3744 10.174C77.2354 10.0187 77.0473 9.94102 76.8101 9.94102H76.0986V12.7244H76.7119C76.8755 12.7244 77.0064 12.7121 77.1045 12.6876C77.2108 12.6549 77.3131 12.5895 77.4112 12.4914Z" fill="white"/>
<path d="M80.4986 15.0296C80.4986 15.1113 80.4986 15.1808 80.4986 15.238C80.4986 15.2952 80.5027 15.3443 80.5109 15.3851C80.5272 15.4669 80.5886 15.5854 80.6949 15.7407C80.8094 15.9042 81.0138 15.986 81.3083 15.986C81.4718 15.986 81.6231 15.9532 81.7622 15.8879C81.9012 15.8143 82.0034 15.7203 82.0689 15.6058C82.1179 15.5159 82.1466 15.4301 82.1547 15.3483C82.1711 15.2666 82.1792 15.193 82.1792 15.1276V15.0173V14.441V14.3306C82.1792 14.1508 82.1465 14.0119 82.0811 13.9138C82.0157 13.8075 81.8685 13.689 81.6395 13.5582C81.4841 13.4764 81.206 13.362 80.8053 13.2148C80.4045 13.0677 80.0692 12.8348 79.7993 12.516C79.5294 12.1972 79.3945 11.7639 79.3945 11.2162V10.8484C79.3945 10.2843 79.5826 9.80208 79.9588 9.40154C80.3432 8.99282 80.8094 8.78845 81.3573 8.78845C81.9298 8.78845 82.4042 8.98873 82.7804 9.38927C83.1648 9.78981 83.3569 10.2762 83.3569 10.8484V11.2162H82.1792V10.8484C82.1792 10.7912 82.1752 10.738 82.167 10.689C82.167 10.6399 82.1629 10.595 82.1547 10.5541C82.1465 10.5132 82.1261 10.4642 82.0934 10.407C82.0606 10.3497 82.0156 10.2803 81.9584 10.1985C81.8439 10.035 81.6517 9.95328 81.3818 9.95328C81.1446 9.95328 80.9484 10.0391 80.793 10.2108C80.6458 10.3825 80.5722 10.595 80.5722 10.8484V11.2162V11.3266C80.5722 11.4901 80.5967 11.6208 80.6458 11.7189C80.703 11.8088 80.8339 11.911 81.0383 12.0255C81.1038 12.0582 81.2019 12.1031 81.3328 12.1603C81.4718 12.2094 81.6394 12.2707 81.8357 12.3443C82.2283 12.4751 82.58 12.708 82.8908 13.0432C83.2015 13.3783 83.3569 13.8198 83.3569 14.3674V15.0296C83.3569 15.3157 83.3283 15.5568 83.2711 15.753C83.222 15.9492 83.0543 16.2352 82.768 16.6113C82.4818 16.9709 82.0034 17.1508 81.3328 17.1508C80.6212 17.1508 80.106 16.9219 79.787 16.4641C79.4681 15.9982 79.3086 15.52 79.3086 15.0296V14.7353H80.4986L80.4986 15.0296Z" fill="white"/>
<path d="M31.918 28.4061V20.1909H35.4266V21.2944H33.0834V23.759H35.1321V24.8625H33.0834V28.4061H31.918Z" fill="white"/>
<path d="M36.01 20.9633C36.1981 20.7018 36.4353 20.4974 36.7215 20.3503C37.016 20.1949 37.3186 20.1173 37.6293 20.1173C37.9319 20.1173 38.2141 20.1786 38.4758 20.3012C38.7457 20.4238 38.9705 20.5914 39.1505 20.8039C39.3304 21.0165 39.4531 21.2372 39.5185 21.4661C39.584 21.6868 39.6166 21.9279 39.6166 22.1895V26.3707C39.6166 26.6159 39.5921 26.8325 39.543 27.0205C39.5022 27.2085 39.404 27.417 39.2486 27.6459C39.1014 27.8748 38.8847 28.0709 38.5985 28.2344C38.3204 28.3979 38.0096 28.4797 37.6661 28.4797C37.4698 28.4797 37.2818 28.4552 37.1018 28.4061C36.9219 28.3489 36.7543 28.2753 36.5989 28.1854C36.4435 28.0955 36.3044 27.9933 36.1818 27.8789C36.0673 27.7644 35.9773 27.6459 35.9119 27.5232C35.7892 27.2698 35.7156 27.0655 35.6911 26.9102C35.6665 26.7549 35.6543 26.575 35.6543 26.3707V22.1895C35.6543 21.9442 35.6788 21.7276 35.7279 21.5396C35.7851 21.3434 35.8792 21.1513 36.01 20.9633ZM38.2918 21.6132C38.1364 21.3843 37.9238 21.2699 37.6539 21.2699C37.5148 21.2699 37.3758 21.3107 37.2368 21.3925C37.1059 21.4661 37.0119 21.5519 36.9546 21.65C36.9056 21.7481 36.8728 21.8462 36.8565 21.9443C36.8401 22.0424 36.832 22.1241 36.832 22.1895V26.3707C36.832 26.4115 36.832 26.4565 36.832 26.5055C36.832 26.5464 36.8361 26.5913 36.8443 26.6404C36.8525 26.7222 36.9179 26.857 37.0405 27.0451C37.1632 27.2167 37.3677 27.3025 37.6539 27.3025C37.8011 27.3025 37.9319 27.2699 38.0464 27.2045C38.1691 27.1309 38.255 27.0491 38.3041 26.9592C38.3613 26.8611 38.3981 26.7712 38.4145 26.6895C38.4308 26.6077 38.439 26.5015 38.439 26.3707V22.1895C38.439 22.026 38.4308 21.9116 38.4145 21.8462C38.4063 21.7808 38.3654 21.7031 38.2918 21.6132H38.2918Z" fill="white"/>
<path d="M40.6064 28.4061V20.1909H42.6674C43.2072 20.1909 43.661 20.3789 44.0291 20.7549C44.4053 21.131 44.5934 21.5928 44.5934 22.1405V22.9007C44.5934 23.6609 44.2704 24.2413 43.6243 24.6418L44.8755 28.4061H43.6243L42.5202 24.8871H41.7841V28.4061H40.6064ZM43.2194 23.5874C43.293 23.4974 43.3421 23.3953 43.3666 23.2808C43.3993 23.1664 43.4157 23.0397 43.4157 22.9007V22.1405C43.4157 21.8871 43.3462 21.6827 43.2072 21.5274C43.0681 21.3639 42.8719 21.2822 42.6183 21.2822H41.7841V23.8448H42.6061C42.8514 23.8448 43.0559 23.759 43.2195 23.5874H43.2194Z" fill="white"/>
<path d="M47.5865 28.4061V21.2822H46.2002V20.1909H50.1627V21.2822H48.7519V28.4061H47.5865Z" fill="white"/>
<path d="M50.626 28.4061V20.1909H51.7914V23.6977H53.288V20.1909H54.4535V28.4061H53.288V24.7399H51.7914V28.4061H50.626Z" fill="white"/>
<path d="M59.0735 27.229V28.4061H55.5527V20.1909H59.0735V21.2699H56.7182V23.6977H58.7791V24.8135H56.7182V27.229H59.0735Z" fill="white"/>
<path d="M64.502 27.5478C64.3139 27.8421 64.0726 28.0709 63.7782 28.2344C63.4838 28.3979 63.1607 28.4797 62.8091 28.4797C62.4983 28.4797 62.1957 28.4061 61.9012 28.259C61.615 28.1118 61.3901 27.932 61.2266 27.7194C61.0712 27.4987 60.9648 27.278 60.9076 27.0573C60.8585 26.8366 60.834 26.5873 60.834 26.3094V22.2017C60.834 21.9974 60.8544 21.793 60.8953 21.5887C60.9526 21.3843 61.1038 21.0941 61.3492 20.7181C61.6027 20.3176 62.1016 20.1173 62.8458 20.1173C63.173 20.1173 63.4797 20.1949 63.7659 20.3503C64.0522 20.5056 64.2689 20.6977 64.4161 20.9265C64.5715 21.1472 64.6696 21.3598 64.7105 21.5642C64.7596 21.7603 64.7841 21.9729 64.7841 22.2017V22.5451H63.6187V22.2017C63.6187 22.1364 63.6146 22.0791 63.6064 22.0301C63.6064 21.9728 63.6023 21.9238 63.5941 21.8829C63.5859 21.8094 63.5246 21.6908 63.4101 21.5274C63.2956 21.3639 63.1034 21.2821 62.8335 21.2821C62.5146 21.2821 62.3019 21.368 62.1956 21.5396C62.0975 21.7113 62.0402 21.838 62.0239 21.9197C62.0075 22.0015 61.9994 22.0955 61.9994 22.2017V26.3094C61.9994 26.3911 61.9994 26.4606 61.9994 26.5178C61.9994 26.575 62.0034 26.6241 62.0116 26.6649C62.0198 26.7303 62.0812 26.857 62.1957 27.0451C62.302 27.2167 62.5105 27.3025 62.8213 27.3025C63.1402 27.3025 63.3447 27.2167 63.4347 27.0451C63.4837 26.9551 63.5206 26.8816 63.5451 26.8244C63.5696 26.759 63.586 26.7017 63.5942 26.6527C63.6105 26.6036 63.6187 26.5546 63.6187 26.5055C63.6187 26.4483 63.6187 26.3829 63.6187 26.3094V24.8748H62.6741V23.8448H64.7841V26.3094C64.7841 26.481 64.78 26.6282 64.7718 26.7508C64.7636 26.8652 64.7473 26.9674 64.7227 27.0573C64.6982 27.1473 64.6655 27.2331 64.6246 27.3148C64.5919 27.3884 64.551 27.466 64.5019 27.5478H64.502Z" fill="white"/>
<path d="M66.1038 20.9633C66.2919 20.7018 66.529 20.4974 66.8153 20.3503C67.1097 20.1949 67.4123 20.1173 67.7231 20.1173C68.0256 20.1173 68.3078 20.1786 68.5695 20.3012C68.8394 20.4238 69.0642 20.5914 69.2442 20.8039C69.4241 21.0165 69.5468 21.2372 69.6122 21.4661C69.6776 21.6868 69.7103 21.9279 69.7103 22.1895V26.3707C69.7103 26.6159 69.6858 26.8325 69.6367 27.0205C69.5958 27.2085 69.4977 27.417 69.3423 27.6459C69.1951 27.8748 68.9784 28.0709 68.6922 28.2344C68.4141 28.3979 68.1034 28.4797 67.7599 28.4797C67.5636 28.4797 67.3755 28.4552 67.1956 28.4061C67.0156 28.3489 66.848 28.2753 66.6926 28.1854C66.5372 28.0955 66.3982 27.9933 66.2755 27.8789C66.161 27.7644 66.0711 27.6459 66.0056 27.5232C65.883 27.2698 65.8094 27.0655 65.7848 26.9102C65.7603 26.7549 65.748 26.575 65.748 26.3707V22.1895C65.748 21.9442 65.7726 21.7276 65.8216 21.5396C65.8789 21.3434 65.9729 21.1513 66.1038 20.9633ZM68.3855 21.6132C68.2301 21.3843 68.0175 21.2699 67.7476 21.2699C67.6086 21.2699 67.4695 21.3107 67.3305 21.3925C67.1996 21.4661 67.1056 21.5519 67.0484 21.65C66.9993 21.7481 66.9666 21.8462 66.9502 21.9443C66.9339 22.0424 66.9257 22.1241 66.9257 22.1895V26.3707C66.9257 26.4115 66.9257 26.4565 66.9257 26.5055C66.9257 26.5464 66.9298 26.5913 66.938 26.6404C66.9462 26.7222 67.0116 26.857 67.1343 27.0451C67.2569 27.2167 67.4614 27.3025 67.7476 27.3025C67.8948 27.3025 68.0257 27.2699 68.1402 27.2045C68.2628 27.1309 68.3487 27.0491 68.3978 26.9592C68.455 26.8611 68.4918 26.7712 68.5082 26.6895C68.5245 26.6077 68.5327 26.5015 68.5327 26.3707V22.1895C68.5327 22.026 68.5245 21.9116 68.5082 21.8462C68.5 21.7808 68.4591 21.7031 68.3855 21.6132H68.3855Z" fill="white"/>
<path d="M70.2051 28.4061L72.0453 20.1909H73.0635L74.9037 28.4061H73.6401L73.3088 26.6404H71.7876L71.4441 28.4061H70.2051ZM71.9962 25.5492H73.1003L72.5483 22.5574L71.9962 25.5492Z" fill="white"/>
<path d="M78.9646 28.4061H75.4561V20.1909H76.6338V27.229H78.9646V28.4061Z" fill="white"/>
<path d="M80.1939 26.3584C80.1939 26.4402 80.1939 26.5096 80.1939 26.5668C80.1939 26.6241 80.198 26.6731 80.2062 26.714C80.2225 26.7957 80.2838 26.9143 80.3902 27.0696C80.5047 27.2331 80.7091 27.3148 81.0036 27.3148C81.1671 27.3148 81.3184 27.2821 81.4575 27.2167C81.5965 27.1432 81.6987 27.0491 81.7642 26.9347C81.8132 26.8448 81.8419 26.759 81.8501 26.6772C81.8664 26.5955 81.8746 26.5219 81.8746 26.4565V26.3461V25.7699V25.6595C81.8746 25.4796 81.8418 25.3407 81.7764 25.2426C81.711 25.1363 81.5638 25.0178 81.3348 24.887C81.1794 24.8053 80.9013 24.6909 80.5006 24.5437C80.0998 24.3966 79.7645 24.1636 79.4946 23.8448C79.2247 23.526 79.0898 23.0928 79.0898 22.5451V22.1772C79.0898 21.6132 79.2779 21.1309 79.6541 20.7304C80.0385 20.3217 80.5047 20.1173 81.0526 20.1173C81.6251 20.1173 82.0995 20.3176 82.4757 20.7181C82.8601 21.1186 83.0522 21.605 83.0522 22.1772V22.5451H81.8746V22.1772C81.8746 22.12 81.8705 22.0669 81.8623 22.0178C81.8623 21.9688 81.8582 21.9238 81.85 21.8829C81.8418 21.8421 81.8214 21.793 81.7887 21.7358C81.756 21.6786 81.7109 21.6091 81.6537 21.5274C81.5392 21.3639 81.347 21.2821 81.0771 21.2821C80.84 21.2821 80.6437 21.368 80.4883 21.5396C80.3411 21.7113 80.2675 21.9238 80.2675 22.1772V22.5451V22.6554C80.2675 22.8189 80.292 22.9497 80.3411 23.0478C80.3983 23.1377 80.5292 23.2399 80.7337 23.3543C80.7991 23.3871 80.8972 23.432 81.0281 23.4892C81.1671 23.5383 81.3348 23.5996 81.531 23.6731C81.9236 23.8039 82.2753 24.0369 82.5861 24.372C82.8968 24.7072 83.0522 25.1486 83.0522 25.6963V26.3584C83.0522 26.6445 83.0236 26.8856 82.9664 27.0818C82.9173 27.278 82.7496 27.5641 82.4634 27.9402C82.1772 28.2998 81.6987 28.4797 81.0281 28.4797C80.3166 28.4797 79.8013 28.2508 79.4824 27.793C79.1634 27.3271 79.0039 26.8489 79.0039 26.3584V26.0641H80.1939V26.3584Z" fill="white"/>
<path d="M11.8259 28.5083V11.7846L9.00781 13.8971V10.9045L11.8259 8.85065H14.6146V28.5083H11.8259Z" fill="white"/>
<path d="M18.8487 13.7798H16.3535V8.85065H24.7491V11.4032L20.1697 28.5083H17.1755L21.9603 11.4619H18.8487V13.7798Z" fill="white"/>
<path fill-rule="evenodd" clip-rule="evenodd" d="M49.4296 59.7153C49.4296 61.2095 49.1351 62.6892 48.563 64.0697C47.9909 65.4502 47.1523 66.7045 46.0952 67.7611C45.0381 68.8177 43.7831 69.6558 42.4019 70.2276C41.0207 70.7995 39.5403 71.0938 38.0453 71.0938C35.0261 71.0938 32.1304 69.895 29.9955 67.7611C27.8605 65.6272 26.6611 62.7331 26.6611 59.7153C26.6611 56.6975 27.8605 53.8034 29.9955 51.6695C32.1304 49.5356 35.0261 48.3368 38.0453 48.3368C41.0646 48.3368 43.9603 49.5356 46.0952 51.6695C48.2302 53.8034 49.4296 56.6975 49.4296 59.7153V59.7153Z" stroke="white" stroke-width="4" stroke-linecap="round" stroke-linejoin="round"/>
<path fill-rule="evenodd" clip-rule="evenodd" d="M60.9667 51.3141C60.9667 54.3318 59.7673 57.226 57.6323 59.3599C55.4974 61.4938 52.6017 62.6926 49.5825 62.6926C46.5632 62.6926 43.6675 61.4938 41.5326 59.3599C39.3976 57.226 38.1982 54.3319 38.1982 51.3141C38.1982 49.8198 38.4927 48.3402 39.0648 46.9597C39.6369 45.5792 40.4755 44.3249 41.5326 43.2683C42.5897 42.2117 43.8447 41.3736 45.2259 40.8018C46.6071 40.2299 48.0875 39.9356 49.5825 39.9356C52.6017 39.9356 55.4974 41.1344 57.6323 43.2683C59.7673 45.4022 60.9667 48.2963 60.9667 51.3141V51.3141Z" stroke="white" stroke-width="4" stroke-linecap="round" stroke-linejoin="round"/>
<path fill-rule="evenodd" clip-rule="evenodd" d="M67.9922 73.1109C67.9922 76.1287 66.7928 79.0229 64.6578 81.1567C62.5229 83.2906 59.6272 84.4894 56.6079 84.4894C55.1129 84.4894 53.6325 84.1951 52.2513 83.6233C50.8701 83.0514 49.6151 82.2133 48.558 81.1567C47.5009 80.1002 46.6623 78.8458 46.0902 77.4653C45.5181 76.0848 45.2236 74.6052 45.2236 73.1109C45.2236 70.0932 46.423 67.199 48.558 65.0651C50.693 62.9312 53.5886 61.7325 56.6079 61.7325C59.6272 61.7325 62.5229 62.9312 64.6578 65.0651C66.7928 67.199 67.9922 70.0932 67.9922 73.1109V73.1109Z" stroke="white" stroke-width="4" stroke-linecap="round" stroke-linejoin="round"/>
<path fill-rule="evenodd" clip-rule="evenodd" d="M72.3837 59.5793C72.3837 61.0735 72.0893 62.5531 71.5172 63.9336C70.945 65.3141 70.1065 66.5685 69.0493 67.6251C67.9922 68.6817 66.7372 69.5198 65.356 70.0916C63.9748 70.6634 62.4945 70.9577 60.9995 70.9577C59.5045 70.9577 58.0241 70.6634 56.6429 70.0916C55.2617 69.5198 54.0067 68.6817 52.9496 67.6251C51.8925 66.5685 51.0539 65.3141 50.4818 63.9336C49.9097 62.5531 49.6152 61.0735 49.6152 59.5793C49.6152 58.085 49.9097 56.6054 50.4818 55.2249C51.0539 53.8444 51.8925 52.59 52.9496 51.5334C54.0067 50.4769 55.2617 49.6387 56.6429 49.0669C58.0241 48.4951 59.5045 48.2008 60.9995 48.2008C62.4945 48.2008 63.9748 48.4951 65.356 49.0669C66.7372 49.6387 67.9922 50.4769 69.0493 51.5334C70.1065 52.59 70.945 53.8444 71.5172 55.2249C72.0893 56.6054 72.3837 58.085 72.3837 59.5793V59.5793Z" stroke="white" stroke-width="4" stroke-linecap="round" stroke-linejoin="round"/>
<path fill-rule="evenodd" clip-rule="evenodd" d="M53.7958 73.1841C53.7958 74.6783 53.5014 76.1579 52.9293 77.5384C52.3572 78.9189 51.5186 80.1733 50.4615 81.2299C49.4043 82.2865 48.1493 83.1246 46.7681 83.6964C45.3869 84.2682 43.9066 84.5625 42.4116 84.5625C40.9166 84.5625 39.4362 84.2682 38.055 83.6964C36.6738 83.1246 35.4188 82.2865 34.3617 81.2299C33.3046 80.1733 32.466 78.9189 31.8939 77.5384C31.3218 76.1579 31.0273 74.6783 31.0273 73.1841C31.0273 71.6898 31.3218 70.2102 31.8939 68.8297C32.466 67.4492 33.3046 66.1948 34.3617 65.1382C35.4188 64.0816 36.6738 63.2435 38.055 62.6717C39.4362 62.0999 40.9166 61.8056 42.4116 61.8056C43.9066 61.8056 45.3869 62.0999 46.7681 62.6717C48.1493 63.2435 49.4043 64.0816 50.4615 65.1382C51.5186 66.1948 52.3572 67.4492 52.9293 68.8297C53.5014 70.2102 53.7958 71.6898 53.7958 73.1841Z" stroke="white" stroke-width="4" stroke-linecap="round" stroke-linejoin="round"/>
</svg>
