<svg width="99" height="98" viewBox="0 0 99 98" fill="none" xmlns="http://www.w3.org/2000/svg">
<path fill-rule="evenodd" clip-rule="evenodd" d="M1.48377 0.378601H97.7232C98.0242 0.378601 98.2666 0.620807 98.2666 0.921663V97.271C98.2666 97.5719 98.0242 97.8141 97.7232 97.8141H1.48377C1.18275 97.8141 0.94043 97.5719 0.94043 97.271V0.921663C0.94043 0.620807 1.18275 0.378601 1.48377 0.378601Z" fill="#D3A029"/>
<path d="M29.0479 17.2958V16.2413L31.256 10.1719H29.2073V9.08064H32.5687V10.0248L30.3728 16.1187H32.5687V17.2958H29.0479Z" fill="white"/>
<path d="M37.0794 16.117V17.2941H33.5586V9.07893H37.0794V10.1579H34.724V12.5857H36.785V13.7015H34.724V16.117H37.0794Z" fill="white"/>
<path d="M37.6816 17.2941V9.07893H39.7426C40.2824 9.07893 40.7363 9.26694 41.1043 9.64295C41.4805 10.019 41.6686 10.4808 41.6686 11.0285V11.7887C41.6686 12.5489 41.3456 13.1293 40.6995 13.5298L41.9508 17.2941H40.6995L39.5954 13.7751H38.8593V17.2941H37.6816ZM40.2947 12.4754C40.3683 12.3854 40.4173 12.2833 40.4419 12.1688C40.4746 12.0544 40.491 11.9277 40.491 11.7887V11.0285C40.491 10.7751 40.4215 10.5707 40.2824 10.4154C40.1434 10.2519 39.9471 10.1702 39.6935 10.1702H38.8594V12.7328H39.6813C39.9266 12.7328 40.1311 12.647 40.2947 12.4754H40.2947Z" fill="white"/>
<path d="M42.7181 9.85142C42.9062 9.58984 43.1433 9.38547 43.4296 9.23833C43.724 9.08303 44.0266 9.00537 44.3374 9.00537C44.64 9.00537 44.9221 9.06668 45.1838 9.18929C45.4537 9.31191 45.6786 9.47948 45.8586 9.69201C46.0385 9.90454 46.1612 10.1252 46.2266 10.3541C46.292 10.5748 46.3248 10.816 46.3248 11.0776V15.2587C46.3248 15.5039 46.3002 15.7206 46.2511 15.9086C46.2103 16.0966 46.1121 16.305 45.9567 16.5339C45.8095 16.7628 45.5928 16.959 45.3065 17.1224C45.0285 17.2859 44.7177 17.3677 44.3742 17.3677C44.1779 17.3677 43.9898 17.3432 43.8099 17.2941C43.6299 17.2369 43.4623 17.1633 43.3069 17.0734C43.1515 16.9835 43.0125 16.8813 42.8898 16.7669C42.7753 16.6524 42.6854 16.5339 42.6199 16.4113C42.4972 16.1579 42.4236 15.9535 42.3991 15.7982C42.3746 15.6429 42.3623 15.4631 42.3623 15.2587V11.0776C42.3623 10.8323 42.3868 10.6157 42.4359 10.4277C42.4932 10.2315 42.5872 10.0394 42.7181 9.85142ZM44.9998 10.5013C44.8444 10.2724 44.6318 10.1579 44.3619 10.1579C44.2229 10.1579 44.0839 10.1988 43.9448 10.2806C43.814 10.3541 43.7199 10.44 43.6627 10.538C43.6136 10.6361 43.5809 10.7342 43.5645 10.8323C43.5482 10.9304 43.54 11.0122 43.54 11.0776V15.2587C43.54 15.2996 43.54 15.3445 43.54 15.3936C43.54 15.4344 43.5441 15.4794 43.5523 15.5285C43.5605 15.6102 43.6259 15.7451 43.7486 15.9331C43.8713 16.1047 44.0757 16.1906 44.362 16.1906C44.5092 16.1906 44.64 16.1579 44.7545 16.0925C44.8772 16.0189 44.9631 15.9372 45.0121 15.8473C45.0694 15.7492 45.1062 15.6593 45.1226 15.5775C45.1389 15.4958 45.1471 15.3895 45.1471 15.2587V11.0776C45.1471 10.9141 45.1389 10.7996 45.1226 10.7342C45.1144 10.6688 45.0735 10.5912 44.9999 10.5013H44.9998Z" fill="white"/>
<path d="M29.293 28.623V20.4078H30.4584V23.9146H31.955V20.4078H33.1205V28.623H31.955V24.9568H30.4584V28.623H29.293Z" fill="white"/>
<path d="M37.9541 27.7647C37.7742 28.0426 37.5411 28.2674 37.2549 28.4391C36.9768 28.6107 36.666 28.6966 36.3225 28.6966C36.1508 28.6966 35.979 28.672 35.8073 28.623C35.6437 28.5739 35.4883 28.5126 35.3411 28.4391C35.1939 28.3573 35.063 28.2674 34.9485 28.1693C34.834 28.0631 34.7482 27.9527 34.6909 27.8383C34.5682 27.6094 34.4865 27.4091 34.4456 27.2374C34.4128 27.0658 34.3965 26.8819 34.3965 26.6857V20.4078H35.5742V26.6857C35.5742 26.7429 35.5742 26.796 35.5742 26.8451C35.5824 26.8859 35.5905 26.9268 35.5987 26.9677C35.6069 27.0331 35.6682 27.1475 35.7827 27.311C35.889 27.4582 36.073 27.5317 36.3347 27.5317C36.5719 27.5317 36.7477 27.4459 36.8622 27.2742C36.9849 27.0944 37.0463 26.8982 37.0463 26.6857V20.4078H38.2239V26.6857C38.2239 26.8819 38.2035 27.0699 38.1626 27.2497C38.1217 27.4296 38.0522 27.6012 37.9541 27.7647H37.9541Z" fill="white"/>
<path d="M41.9714 28.623L40.1435 23.6326V28.623H38.9658V20.4078H40.0822L41.8978 25.386V20.4078H43.0755V28.623H41.9714Z" fill="white"/>
<path d="M47.6133 27.7647C47.4252 28.059 47.184 28.2879 46.8895 28.4513C46.5951 28.6148 46.2721 28.6966 45.9204 28.6966C45.6096 28.6966 45.307 28.623 45.0126 28.4759C44.7263 28.3287 44.5014 28.1489 44.3379 27.9364C44.1825 27.7157 44.0762 27.4949 44.0189 27.2742C43.9698 27.0535 43.9453 26.8042 43.9453 26.5263V22.4187C43.9453 22.2143 43.9657 22.01 44.0066 21.8056C44.0639 21.6013 44.2152 21.3111 44.4605 20.9351C44.7141 20.5345 45.213 20.3342 45.9572 20.3342C46.2843 20.3342 46.591 20.4119 46.8773 20.5672C47.1635 20.7225 47.3802 20.9146 47.5275 21.1435C47.6828 21.3642 47.781 21.5767 47.8219 21.7811C47.8709 21.9773 47.8955 22.1898 47.8955 22.4187V22.762H46.73V22.4187C46.73 22.3533 46.7259 22.2961 46.7178 22.247C46.7178 22.1898 46.7136 22.1408 46.7055 22.0999C46.6973 22.0263 46.6359 21.9078 46.5214 21.7443C46.4069 21.5808 46.2148 21.4991 45.9449 21.4991C45.6259 21.4991 45.4133 21.5849 45.307 21.7566C45.2088 21.9282 45.1516 22.0549 45.1352 22.1367C45.1189 22.2184 45.1107 22.3124 45.1107 22.4187V26.5263C45.1107 26.608 45.1107 26.6775 45.1107 26.7347C45.1107 26.792 45.1148 26.841 45.123 26.8819C45.1312 26.9473 45.1925 27.074 45.307 27.262C45.4133 27.4336 45.6219 27.5195 45.9326 27.5195C46.2516 27.5195 46.4561 27.4336 46.546 27.262C46.5951 27.1721 46.6319 27.0985 46.6564 27.0413C46.681 26.9759 46.6973 26.9186 46.7055 26.8696C46.7219 26.8206 46.73 26.7715 46.73 26.7225C46.73 26.6652 46.73 26.5998 46.73 26.5263V25.0917H45.7854V24.0617H47.8955V26.5263C47.8955 26.6979 47.8914 26.8451 47.8832 26.9677C47.875 27.0821 47.8586 27.1843 47.8341 27.2742C47.8096 27.3641 47.7768 27.45 47.736 27.5317C47.7032 27.6053 47.6623 27.683 47.6133 27.7647H47.6133Z" fill="white"/>
<path d="M52.305 27.4459V28.623H48.7842V20.4078H52.305V21.4868H49.9496V23.9146H52.0106V25.0304H49.9496V27.4459H52.305Z" fill="white"/>
<path d="M52.8154 28.623V20.4078H54.8764C55.4162 20.4078 55.8701 20.5958 56.2381 20.9719C56.6143 21.3479 56.8024 21.8097 56.8024 22.3574V23.1176C56.8024 23.8778 56.4794 24.4582 55.8333 24.8587L57.0846 28.623H55.8333L54.7292 25.104H53.9931V28.623H52.8154ZM55.4285 23.8043C55.5021 23.7144 55.5511 23.6122 55.5757 23.4977C55.6084 23.3833 55.6248 23.2566 55.6248 23.1176V22.3574C55.6248 22.104 55.5552 21.8996 55.4162 21.7443C55.2772 21.5809 55.0809 21.4991 54.8274 21.4991H53.9932V24.0618H54.8151C55.0605 24.0618 55.2649 23.9759 55.4285 23.8043H55.4285Z" fill="white"/>
<path d="M19.6866 28.249H11.3204V25.6671L16.5456 15.5155C16.7804 15.0461 16.8978 14.5669 16.8978 14.0779V12.6109C16.8978 12.2197 16.7609 11.8871 16.4869 11.6133C16.2129 11.3199 15.8802 11.1732 15.4888 11.1732C15.1366 11.1732 14.8137 11.3004 14.5201 11.5546C14.2461 11.8089 14.1091 12.1219 14.1091 12.4935V14.2246H11.2617V12.8162C11.2617 12.0534 11.5455 11.1243 12.113 10.029C12.7001 8.95316 13.8743 8.41525 15.6356 8.41525C16.7511 8.41525 17.7002 8.83579 18.483 9.67687C19.2854 10.5375 19.6866 11.5155 19.6866 12.6109V14.4006C19.6866 15.2025 19.4713 16.0045 19.0407 16.8065L14.6375 25.4617H19.6866V28.249Z" fill="white"/>
<path fill-rule="evenodd" clip-rule="evenodd" d="M55.8462 85.2493C56.6178 85.2493 56.7554 84.4096 56.7175 83.8661C56.6714 83.2056 57.3069 83.1008 57.64 82.9953C61.3964 81.8051 65.3368 79.5216 68.4543 76.2334C71.4431 73.0811 73.8016 69.8099 74.6559 64.3488C74.7594 63.6873 74.3864 63.1707 73.7334 63.1707H22.9074C22.2544 63.1707 21.8814 63.6873 21.9849 64.3488C22.8392 69.8099 25.1977 73.0811 28.1865 76.2334C31.304 79.5216 35.2444 81.8051 39.0007 82.9953C39.3338 83.1008 39.9694 83.2056 39.9233 83.8661C39.8854 84.4096 40.023 85.2493 40.7946 85.2493H55.8462ZM38.5148 60.9384H41.8852C41.8852 60.9384 43.4299 56.6237 39.747 52.9332C38.5687 51.7525 37.8219 49.9826 37.8219 48.315C37.8219 45.143 39.2461 43.3062 39.667 42.6288C40.7521 40.8826 38.1661 39.6543 37.0532 40.9896C35.3341 43.052 34.3368 45.8868 34.3368 48.5711C34.3368 51.5962 35.8063 53.1324 37.3094 54.9232C40.1009 58.2489 38.5148 60.9384 38.5148 60.9384ZM58.8108 60.9384H62.1812C62.1812 60.9384 63.7259 56.6237 60.043 52.9332C58.8647 51.7525 58.118 49.9826 58.118 48.315C58.118 45.143 59.5421 43.3062 59.963 42.6288C61.0481 40.8826 58.4621 39.6543 57.3492 40.9896C55.6301 43.052 54.6328 45.8868 54.6328 48.5711C54.6328 51.5962 56.1023 53.1324 57.6054 54.9232C60.3969 58.2489 58.8108 60.9384 58.8108 60.9384ZM48.714 60.9384H52.0844C52.0844 60.9384 53.6292 56.6237 49.9462 52.9332C48.7679 51.7525 48.0212 49.9826 48.0212 48.315C48.0212 45.143 49.4454 43.3062 49.8663 42.6288C50.9513 40.8826 48.3654 39.6543 47.2524 40.9896C45.5333 43.052 44.536 45.8868 44.536 48.5711C44.536 51.5962 46.0055 53.1324 47.5087 54.9232C50.3002 58.2489 48.714 60.9384 48.714 60.9384Z" fill="white"/>
</svg>
