<svg width="99" height="98" viewBox="0 0 99 98" fill="none" xmlns="http://www.w3.org/2000/svg">
<path fill-rule="evenodd" clip-rule="evenodd" d="M1.24744 0.378601H97.4869C97.7879 0.378601 98.0302 0.620807 98.0302 0.921663V97.271C98.0302 97.5719 97.7879 97.8141 97.4869 97.8141H1.24744C0.946431 97.8141 0.704102 97.5719 0.704102 97.271V0.921663C0.704102 0.620807 0.946431 0.378601 1.24744 0.378601Z" fill="#279B48"/>
<path d="M33.1241 16.4358C32.936 16.7301 32.6947 16.959 32.4003 17.1224C32.1059 17.2859 31.7828 17.3677 31.4311 17.3677C31.1204 17.3677 30.8178 17.2941 30.5233 17.147C30.2371 16.9998 30.0122 16.82 29.8486 16.6075C29.6932 16.3868 29.5869 16.1661 29.5297 15.9454C29.4806 15.7246 29.4561 15.4753 29.4561 15.1974V11.0898C29.4561 10.8855 29.4765 10.6811 29.5174 10.4767C29.5746 10.2724 29.7259 9.98219 29.9713 9.60618C30.2248 9.20564 30.7237 9.00537 31.4679 9.00537C31.7951 9.00537 32.1018 9.08303 32.388 9.23833C32.6742 9.39365 32.891 9.58575 33.0382 9.81463C33.1936 10.0353 33.2917 10.2479 33.3326 10.4522C33.3817 10.6484 33.4062 10.8609 33.4062 11.0898V11.4331H32.2408V11.0898C32.2408 11.0244 32.2367 10.9672 32.2285 10.9182C32.2285 10.8609 32.2244 10.8119 32.2162 10.771C32.208 10.6975 32.1467 10.5789 32.0322 10.4154C31.9177 10.252 31.7255 10.1702 31.4556 10.1702C31.1367 10.1702 30.924 10.256 30.8177 10.4277C30.7196 10.5994 30.6623 10.7261 30.646 10.8078C30.6296 10.8895 30.6214 10.9836 30.6214 11.0898V15.1974C30.6214 15.2791 30.6214 15.3486 30.6214 15.4058C30.6214 15.4631 30.6255 15.5121 30.6337 15.553C30.6419 15.6184 30.7033 15.7451 30.8177 15.9331C30.9241 16.1047 31.1326 16.1906 31.4434 16.1906C31.7624 16.1906 31.9668 16.1047 32.0568 15.9331C32.1058 15.8432 32.1426 15.7696 32.1672 15.7124C32.1917 15.647 32.2081 15.5898 32.2163 15.5407C32.2326 15.4917 32.2408 15.4426 32.2408 15.3936C32.2408 15.3364 32.2408 15.271 32.2408 15.1974V13.7628H31.2962V12.7329H33.4062V15.1974C33.4062 15.3691 33.4021 15.5162 33.3939 15.6388C33.3857 15.7533 33.3694 15.8554 33.3448 15.9454C33.3203 16.0353 33.2876 16.1211 33.2467 16.2028C33.214 16.2764 33.1731 16.3541 33.124 16.4358H33.1241Z" fill="white"/>
<path d="M34.7034 9.85142C34.8915 9.58984 35.1287 9.38547 35.4149 9.23833C35.7094 9.08303 36.012 9.00537 36.3228 9.00537C36.6254 9.00537 36.9075 9.06668 37.1692 9.18929C37.4391 9.31191 37.664 9.47948 37.844 9.69201C38.0239 9.90454 38.1466 10.1252 38.212 10.3541C38.2774 10.5748 38.3102 10.816 38.3102 11.0776V15.2587C38.3102 15.5039 38.2856 15.7206 38.2365 15.9086C38.1957 16.0966 38.0975 16.305 37.9421 16.5339C37.7949 16.7628 37.5782 16.959 37.2919 17.1224C37.0138 17.2859 36.7031 17.3677 36.3596 17.3677C36.1633 17.3677 35.9752 17.3432 35.7953 17.2941C35.6153 17.2369 35.4477 17.1633 35.2923 17.0734C35.1369 16.9835 34.9979 16.8813 34.8752 16.7669C34.7607 16.6524 34.6707 16.5339 34.6053 16.4113C34.4826 16.1579 34.409 15.9535 34.3845 15.7982C34.3599 15.6429 34.3477 15.4631 34.3477 15.2587V11.0776C34.3477 10.8323 34.3722 10.6157 34.4213 10.4277C34.4785 10.2315 34.5726 10.0394 34.7034 9.85142ZM36.9852 10.5013C36.8298 10.2724 36.6172 10.1579 36.3473 10.1579C36.2083 10.1579 36.0692 10.1988 35.9302 10.2806C35.7993 10.3541 35.7053 10.44 35.648 10.538C35.599 10.6361 35.5662 10.7342 35.5499 10.8323C35.5335 10.9304 35.5254 11.0122 35.5254 11.0776V15.2587C35.5254 15.2996 35.5254 15.3445 35.5254 15.3936C35.5254 15.4344 35.5295 15.4794 35.5377 15.5285C35.5459 15.6102 35.6113 15.7451 35.7339 15.9331C35.8566 16.1047 36.0611 16.1906 36.3473 16.1906C36.4946 16.1906 36.6254 16.1579 36.7399 16.0925C36.8626 16.0189 36.9485 15.9372 36.9975 15.8473C37.0548 15.7492 37.0916 15.6593 37.1079 15.5775C37.1243 15.4958 37.1324 15.3895 37.1324 15.2587V11.0776C37.1324 10.9141 37.1243 10.7996 37.1079 10.7342C37.0997 10.6688 37.0588 10.5912 36.9853 10.5013H36.9852Z" fill="white"/>
<path d="M39.6663 9.85142C39.8544 9.58984 40.0916 9.38547 40.3778 9.23833C40.6723 9.08303 40.9749 9.00537 41.2857 9.00537C41.5883 9.00537 41.8704 9.06668 42.1321 9.18929C42.402 9.31191 42.6269 9.47948 42.8068 9.69201C42.9868 9.90454 43.1094 10.1252 43.1749 10.3541C43.2403 10.5748 43.273 10.816 43.273 11.0776V15.2587C43.273 15.5039 43.2485 15.7206 43.1994 15.9086C43.1585 16.0966 43.0604 16.305 42.905 16.5339C42.7578 16.7628 42.541 16.959 42.2548 17.1224C41.9767 17.2859 41.666 17.3677 41.3225 17.3677C41.1262 17.3677 40.9381 17.3432 40.7581 17.2941C40.5782 17.2369 40.4105 17.1633 40.2551 17.0734C40.0998 16.9835 39.9607 16.8813 39.8381 16.7669C39.7236 16.6524 39.6336 16.5339 39.5682 16.4113C39.4455 16.1579 39.3719 15.9535 39.3473 15.7982C39.3228 15.6429 39.3105 15.4631 39.3105 15.2587V11.0776C39.3105 10.8323 39.3351 10.6157 39.3842 10.4277C39.4414 10.2315 39.5354 10.0394 39.6663 9.85142ZM41.9481 10.5013C41.7927 10.2724 41.5801 10.1579 41.3102 10.1579C41.1711 10.1579 41.0321 10.1988 40.8931 10.2806C40.7622 10.3541 40.6682 10.44 40.6109 10.538C40.5619 10.6361 40.5291 10.7342 40.5128 10.8323C40.4964 10.9304 40.4883 11.0122 40.4883 11.0776V15.2587C40.4883 15.2996 40.4883 15.3445 40.4883 15.3936C40.4883 15.4344 40.4924 15.4794 40.5006 15.5285C40.5087 15.6102 40.5742 15.7451 40.6968 15.9331C40.8195 16.1047 41.024 16.1906 41.3102 16.1906C41.4574 16.1906 41.5883 16.1579 41.7028 16.0925C41.8255 16.0189 41.9113 15.9372 41.9604 15.8473C42.0176 15.7492 42.0545 15.6593 42.0708 15.5775C42.0872 15.4958 42.0953 15.3895 42.0953 15.2587V11.0776C42.0953 10.9141 42.0872 10.7996 42.0708 10.7342C42.0626 10.6688 42.0217 10.5912 41.9481 10.5013H41.9481Z" fill="white"/>
<path d="M46.2241 9.07893C46.7557 9.07893 47.2096 9.26694 47.5858 9.64295C47.9702 10.0108 48.1624 10.4604 48.1624 10.9917V15.2587C48.1624 15.8636 47.9784 16.3541 47.6104 16.7301C47.2423 17.1061 46.768 17.2941 46.1873 17.2941H44.3594V9.07893H46.2241ZM46.997 15.2587V10.9917C46.997 10.7628 46.9111 10.5707 46.7393 10.4154C46.5758 10.2601 46.3754 10.1825 46.1382 10.1825H45.5248V16.2028H46.1014C46.6985 16.2028 46.997 15.8881 46.997 15.2587Z" fill="white"/>
<path d="M50.4092 17.2941V9.07893H51.5746V12.5857H53.0712V9.07893H54.2366V17.2941H53.0712V13.6279H51.5746V17.2941H50.4092Z" fill="white"/>
<path d="M58.848 16.117V17.2941H55.3271V9.07893H58.848V10.1579H56.4926V12.5857H58.5536V13.7015H56.4926V16.117H58.848Z" fill="white"/>
<path d="M59.0225 17.2941L60.8626 9.07893H61.8808L63.7209 17.2941H62.4574L62.1262 15.5284H60.605L60.2615 17.2941H59.0225ZM60.8135 14.4372H61.9176L61.3656 11.4454L60.8135 14.4372Z" fill="white"/>
<path d="M67.8416 17.2941H64.333V9.07893H65.5107V16.117H67.8416V17.2941Z" fill="white"/>
<path d="M68.3735 17.2941V10.1702H66.9873V9.07893H70.9497V10.1702H69.539V17.2941H68.3735Z" fill="white"/>
<path d="M71.5801 17.2941V9.07893H72.7455V12.5857H74.2422V9.07893H75.4076V17.2941H74.2422V13.6279H72.7455V17.2941H71.5801Z" fill="white"/>
<path d="M28.916 28.623L30.7562 20.4078H31.7744L33.6146 28.623H32.351L32.0198 26.8574H30.4986L30.1551 28.623H28.916ZM30.7071 25.7661H31.8112L31.2592 22.7743L30.7071 25.7661Z" fill="white"/>
<path d="M37.2195 28.623L35.3916 23.6326V28.623H34.2139V20.4078H35.3302L37.1459 25.386V20.4078H38.3235V28.623H37.2195Z" fill="white"/>
<path d="M41.4702 20.4078C42.0018 20.4078 42.4557 20.5958 42.8319 20.9719C43.2163 21.3397 43.4084 21.7893 43.4084 22.3206V26.5876C43.4084 27.1925 43.2244 27.683 42.8564 28.059C42.4884 28.435 42.014 28.623 41.4334 28.623H39.6055V20.4078H41.4702ZM42.243 26.5876V22.3206C42.243 22.0918 42.1572 21.8996 41.9854 21.7443C41.8218 21.589 41.6215 21.5114 41.3843 21.5114H40.7709V27.5317H41.3475C41.9445 27.5317 42.243 27.217 42.243 26.5876Z" fill="white"/>
<path d="M49.4719 28.623L48.5028 23.6203L47.5582 28.623H46.4663L45.2764 20.4078H46.5277L47.1165 25.3737L48.0611 20.4078H48.9322L49.9013 25.3737L50.4902 20.4078H51.7292L50.576 28.623H49.4719Z" fill="white"/>
<path d="M55.8568 27.4459V28.623H52.3359V20.4078H55.8568V21.4868H53.5014V23.9146H55.5623V25.0304H53.5014V27.4459H55.8568Z" fill="white"/>
<path d="M59.8074 28.623H56.2988V20.4078H57.4765V27.4459H59.8074V28.623Z" fill="white"/>
<path d="M63.659 28.623H60.1504V20.4078H61.3281V27.4459H63.659V28.623Z" fill="white"/>
<path d="M67.5066 20.4078C67.7602 20.4078 67.9973 20.461 68.2182 20.5672C68.4635 20.6817 68.7129 20.8656 68.9665 21.119C69.2364 21.3806 69.3713 21.7893 69.3713 22.3452V22.9705C69.3713 23.5999 69.1219 24.0413 68.623 24.2947C69.1219 24.589 69.3713 25.0468 69.3713 25.668V26.6244C69.3713 27.2048 69.1832 27.683 68.807 28.059C68.439 28.435 67.9646 28.623 67.384 28.623H65.5684V20.4078H67.5066ZM68.2059 22.8479V22.3452C68.2059 22.0917 68.1323 21.8915 67.9851 21.7443C67.8379 21.589 67.6416 21.5114 67.3962 21.5114H66.7338V23.7798H67.433C67.7029 23.7798 67.8992 23.698 68.0219 23.5345C68.1446 23.3629 68.2059 23.134 68.2059 22.8479ZM68.2059 26.6244V25.668C68.2059 25.4064 68.1323 25.2021 67.9851 25.0549C67.846 24.8996 67.6498 24.822 67.3962 24.822H66.7338V27.4582H67.4085C67.6457 27.4582 67.8379 27.3805 67.9851 27.2252C68.1323 27.0617 68.2059 26.8615 68.2059 26.6244Z" fill="white"/>
<path d="M73.7708 27.4459V28.623H70.25V20.4078H73.7708V21.4868H71.4154V23.9146H73.4764V25.0304H71.4154V27.4459H73.7708Z" fill="white"/>
<path d="M74.293 28.623V20.4078H75.4584V28.623H74.293Z" fill="white"/>
<path d="M79.4636 28.623L77.6357 23.6326V28.623H76.458V20.4078H77.5744L79.39 25.386V20.4078H80.5677V28.623H79.4636Z" fill="white"/>
<path d="M84.8741 27.7647C84.686 28.059 84.4447 28.2879 84.1503 28.4513C83.8559 28.6148 83.5328 28.6966 83.1812 28.6966C82.8704 28.6966 82.5678 28.623 82.2733 28.4759C81.9871 28.3287 81.7622 28.1489 81.5986 27.9364C81.4432 27.7157 81.3369 27.4949 81.2797 27.2742C81.2306 27.0535 81.2061 26.8042 81.2061 26.5263V22.4187C81.2061 22.2143 81.2265 22.01 81.2674 21.8056C81.3246 21.6013 81.4759 21.3111 81.7213 20.9351C81.9748 20.5345 82.4737 20.3342 83.2179 20.3342C83.5451 20.3342 83.8518 20.4119 84.138 20.5672C84.4243 20.7225 84.641 20.9146 84.7882 21.1435C84.9436 21.3642 85.0418 21.5767 85.0826 21.7811C85.1317 21.9773 85.1562 22.1898 85.1562 22.4187V22.762H83.9908V22.4187C83.9908 22.3533 83.9867 22.2961 83.9785 22.247C83.9785 22.1898 83.9744 22.1408 83.9662 22.0999C83.958 22.0263 83.8967 21.9078 83.7822 21.7443C83.6677 21.5808 83.4755 21.4991 83.2056 21.4991C82.8867 21.4991 82.674 21.5849 82.5677 21.7566C82.4696 21.9282 82.4123 22.0549 82.396 22.1367C82.3796 22.2184 82.3714 22.3124 82.3714 22.4187V26.5263C82.3714 26.608 82.3714 26.6775 82.3714 26.7347C82.3714 26.792 82.3755 26.841 82.3837 26.8819C82.3919 26.9473 82.4533 27.074 82.5677 27.262C82.6741 27.4336 82.8826 27.5195 83.1934 27.5195C83.5124 27.5195 83.7168 27.4336 83.8068 27.262C83.8559 27.1721 83.8927 27.0985 83.9172 27.0413C83.9417 26.9759 83.9581 26.9186 83.9663 26.8696C83.9826 26.8206 83.9908 26.7715 83.9908 26.7225C83.9908 26.6652 83.9908 26.5998 83.9908 26.5263V25.0917H83.0462V24.0617H85.1562V26.5263C85.1562 26.6979 85.1521 26.8451 85.1439 26.9677C85.1357 27.0821 85.1194 27.1843 85.0949 27.2742C85.0703 27.3641 85.0376 27.45 84.9967 27.5317C84.964 27.6053 84.9231 27.683 84.874 27.7647H84.8741Z" fill="white"/>
<path d="M19.9648 23.7307V24.0827C19.9648 24.2197 19.955 24.3761 19.9354 24.5522C19.9354 24.7087 19.906 24.9434 19.8473 25.2563C19.5734 26.1952 19.0548 26.958 18.2915 27.5448C17.5479 28.1316 16.6771 28.425 15.679 28.425C14.8962 28.425 14.1525 28.1903 13.448 27.7209C12.7435 27.2319 12.2934 26.7527 12.0977 26.2832C11.9803 26.0289 11.8824 25.804 11.8042 25.6084C11.7455 25.4128 11.6965 25.227 11.6574 25.051C11.6183 24.8749 11.5889 24.6891 11.5693 24.4935C11.5693 24.2783 11.5693 24.0241 11.5693 23.7307V22.5864H14.3874V24.2001C14.4265 24.4544 14.5341 24.738 14.7103 25.051C14.906 25.403 15.2582 25.5791 15.7671 25.5791C16.2759 25.5791 16.6379 25.403 16.8532 25.051C17.0684 24.6989 17.1761 24.2588 17.1761 23.7307V20.7086C17.1565 20.337 17.0782 20.0534 16.9412 19.8578C16.8238 19.6622 16.677 19.5253 16.5009 19.447C16.3248 19.3492 16.1389 19.3003 15.9432 19.3003C15.7475 19.2808 15.5714 19.271 15.4148 19.271H14.9158V16.7771H15.4148C16.589 16.7771 17.1761 16.2294 17.1761 15.1341V12.7869C17.1761 12.5521 17.1565 12.3565 17.1174 12.2001C17.1174 12.1414 17.088 12.0534 17.0293 11.936C16.9706 11.8187 16.8825 11.7013 16.7651 11.5839C16.6673 11.4666 16.5401 11.3688 16.3835 11.2905C16.227 11.2123 16.041 11.1732 15.8258 11.1732C15.3365 11.1732 14.9745 11.3297 14.7397 11.6426C14.5048 11.936 14.3874 12.3174 14.3874 12.7869V14.2245H11.5694V12.7869C11.5694 11.5546 11.9705 10.5179 12.7729 9.67685C13.5557 8.83578 14.5733 8.41524 15.8258 8.41524C16.5107 8.41524 17.1663 8.59128 17.7925 8.94336C18.4383 9.29543 18.908 9.70619 19.2016 10.1756C19.5147 10.6451 19.7202 11.0852 19.818 11.4959C19.9159 11.9067 19.9648 12.337 19.9648 12.7869V15.0754C19.9648 16.3468 19.4071 17.315 18.2916 17.98C18.9178 18.4299 19.3483 18.8798 19.5832 19.3297C19.8376 19.76 19.9648 20.3468 19.9648 21.09V23.7307Z" fill="white"/>
<path d="M18.4004 64.2709H34.4914L40.145 51.8828L42.9718 70.791L49.7126 58.6926L53.7716 81.6577L66.8184 38.6253L72.8344 51.0134" stroke="white" stroke-width="3.4" stroke-linecap="round" stroke-linejoin="round"/>
<path fill-rule="evenodd" clip-rule="evenodd" d="M74.893 71.29C74.893 71.29 79.322 66.7864 81.5558 64.5537C82.2425 63.8674 82.7859 62.8157 82.7859 61.557C82.7859 59.3364 81.8276 56.3831 78.5319 56.3831C76.6558 56.3831 75.0891 58.1896 74.9186 58.381C74.6622 58.6686 74.3651 58.6545 74.1495 58.381C73.9908 58.1797 72.4123 56.3831 70.5362 56.3831C67.2405 56.3831 66.2822 59.3364 66.2822 61.557C66.2822 62.8157 66.8256 63.8674 67.5123 64.5537C69.7461 66.7864 74.1751 71.29 74.1751 71.29C74.4187 71.5486 74.611 71.5533 74.893 71.29Z" fill="white"/>
</svg>
