<svg width="98" height="98" viewBox="0 0 98 98" fill="none" xmlns="http://www.w3.org/2000/svg">
<path fill-rule="evenodd" clip-rule="evenodd" d="M1.01016 0.378601H97.2495C97.5506 0.378601 97.7929 0.620807 97.7929 0.921663V97.271C97.7929 97.5719 97.5506 97.8141 97.2495 97.8141H1.01016C0.70914 97.8141 0.466797 97.5719 0.466797 97.271V0.921663C0.466797 0.620807 0.70914 0.378601 1.01016 0.378601Z" fill="#C31F33"/>
<path d="M29.4906 16.6565C29.3025 16.4522 29.1757 16.2355 29.1103 16.0067C29.053 15.7778 29.0244 15.508 29.0244 15.1974V11.1143C29.0244 10.5176 29.2125 10.019 29.5887 9.61844C29.9731 9.20973 30.4556 9.00537 31.0363 9.00537C31.5597 9.00537 32.0218 9.19747 32.4225 9.58166C32.8151 9.96585 33.0114 10.4236 33.0114 10.9549V15.1974C33.0114 15.4345 32.9991 15.6102 32.9745 15.7247C32.9582 15.8391 32.9255 15.9535 32.8764 16.068L33.6493 16.7178L32.9991 17.5026L32.263 16.914C31.9032 17.2083 31.4697 17.3554 30.9627 17.3554C30.6928 17.3554 30.4229 17.29 30.153 17.1592C29.8913 17.0284 29.6705 16.8609 29.4906 16.6565ZM31.4411 14.8909L31.8337 15.1974V11.1143C31.8337 10.8528 31.7601 10.6321 31.6129 10.4522C31.4657 10.2642 31.2612 10.1702 30.9995 10.1702C30.8359 10.1702 30.6928 10.2111 30.5701 10.2928C30.4474 10.3746 30.3575 10.4727 30.3002 10.5871C30.2511 10.7015 30.2225 10.7915 30.2144 10.8568C30.2062 10.9141 30.2021 10.9999 30.2021 11.1143V15.1974V15.2832C30.2021 15.5203 30.2675 15.7328 30.3984 15.9208C30.5374 16.1007 30.75 16.1947 31.0363 16.2028C31.118 16.2028 31.2162 16.1783 31.3307 16.1293L30.7909 15.6756L31.4411 14.8909Z" fill="white"/>
<path d="M37.6992 16.4358C37.5192 16.7137 37.2862 16.9385 36.9999 17.1102C36.7219 17.2818 36.4111 17.3677 36.0676 17.3677C35.8958 17.3677 35.7241 17.3432 35.5524 17.2941C35.3888 17.2451 35.2334 17.1838 35.0862 17.1102C34.939 17.0284 34.8081 16.9385 34.6937 16.8404C34.5792 16.7342 34.4933 16.6238 34.4361 16.5094C34.3134 16.2805 34.2316 16.0802 34.1907 15.9086C34.158 15.7369 34.1416 15.553 34.1416 15.3568V9.07893H35.3193V15.3568C35.3193 15.414 35.3193 15.4672 35.3193 15.5162C35.3275 15.5571 35.3356 15.5979 35.3438 15.6388C35.352 15.7042 35.4133 15.8187 35.5278 15.9821C35.6341 16.1293 35.8181 16.2028 36.0798 16.2028C36.317 16.2028 36.4928 16.117 36.6073 15.9454C36.73 15.7655 36.7914 15.5693 36.7914 15.3568V9.07893H37.969V15.3568C37.969 15.553 37.9486 15.741 37.9077 15.9208C37.8668 16.1007 37.7973 16.2723 37.6992 16.4358Z" fill="white"/>
<path d="M38.5957 17.2941L40.4359 9.07893H41.4541L43.2942 17.2941H42.0307L41.6994 15.5284H40.1782L39.8348 17.2941H38.5957ZM40.3868 14.4372H41.4909L40.9388 11.4454L40.3868 14.4372Z" fill="white"/>
<path d="M47.4149 17.2941H43.9062V9.07893H45.084V16.117H47.4149V17.2941Z" fill="white"/>
<path d="M47.7451 17.2941V9.07893H48.9105V17.2941H47.7451Z" fill="white"/>
<path d="M50.9478 17.2941V10.1702H49.5615V9.07893H53.524V10.1702H52.1132V17.2941H50.9478Z" fill="white"/>
<path d="M55.2481 17.2941V13.7628L53.6533 9.07893H54.8801L55.837 12.2914L56.8061 9.07893H58.0451L56.4135 13.7628V17.2941H55.2481Z" fill="white"/>
<path d="M32.6312 27.4459V28.623H29.1104V20.4078H32.6312V21.4868H30.2758V23.9146H32.3367V25.0304H30.2758V27.4459H32.6312Z" fill="white"/>
<path d="M35.3891 20.4078C35.9207 20.4078 36.3746 20.5958 36.7508 20.9719C37.1352 21.3397 37.3274 21.7893 37.3274 22.3206V26.5876C37.3274 27.1925 37.1434 27.683 36.7754 28.059C36.4073 28.435 35.933 28.623 35.3523 28.623H33.5244V20.4078H35.3891ZM36.162 26.5876V22.3206C36.162 22.0918 36.0761 21.8996 35.9044 21.7443C35.7408 21.589 35.5404 21.5114 35.3032 21.5114H34.6898V27.5317H35.2664C35.8634 27.5317 36.162 27.217 36.162 26.5876Z" fill="white"/>
<path d="M41.8809 27.7647C41.701 28.0426 41.4679 28.2674 41.1816 28.4391C40.9036 28.6107 40.5928 28.6966 40.2493 28.6966C40.0775 28.6966 39.9058 28.672 39.734 28.623C39.5705 28.5739 39.4151 28.5126 39.2679 28.4391C39.1207 28.3573 38.9898 28.2674 38.8753 28.1693C38.7608 28.0631 38.675 27.9527 38.6177 27.8383C38.495 27.6094 38.4132 27.4091 38.3723 27.2374C38.3396 27.0658 38.3232 26.8819 38.3232 26.6857V20.4078H39.5009V26.6857C39.5009 26.7429 39.5009 26.796 39.5009 26.8451C39.5091 26.8859 39.5173 26.9268 39.5254 26.9677C39.5336 27.0331 39.595 27.1475 39.7095 27.311C39.8158 27.4582 39.9998 27.5317 40.2615 27.5317C40.4987 27.5317 40.6745 27.4459 40.789 27.2742C40.9117 27.0944 40.973 26.8982 40.973 26.6857V20.4078H42.1507V26.6857C42.1507 26.8819 42.1303 27.0699 42.0894 27.2497C42.0485 27.4296 41.979 27.6012 41.8809 27.7647H41.8809Z" fill="white"/>
<path d="M46.9456 26.5508C46.9456 26.8124 46.9292 27.0372 46.8965 27.2252C46.872 27.4132 46.7902 27.6176 46.6512 27.8383C46.5776 27.9527 46.4835 28.0631 46.369 28.1693C46.2627 28.2674 46.14 28.3573 46.001 28.4391C45.8701 28.5126 45.727 28.5739 45.5716 28.623C45.4162 28.672 45.2649 28.6966 45.1177 28.6966C44.7497 28.6966 44.4143 28.6189 44.1117 28.4636C43.8173 28.3083 43.6006 28.1121 43.4616 27.875C43.3225 27.638 43.2325 27.4173 43.1916 27.2129C43.1589 27.0086 43.1426 26.7879 43.1426 26.5508V22.3206C43.1426 22.0917 43.163 21.8874 43.2039 21.7075C43.2529 21.5195 43.3511 21.3193 43.4983 21.1067C43.6455 20.8942 43.8541 20.7144 44.124 20.5672C44.3939 20.4119 44.676 20.3342 44.9704 20.3342C45.5347 20.3342 46.005 20.5223 46.3812 20.8983C46.7574 21.2661 46.9455 21.7402 46.9455 22.3206V22.762H45.7801V22.3206C45.7801 22.0917 45.7147 21.8996 45.5838 21.7443C45.4611 21.589 45.2771 21.5114 45.0317 21.5114C44.8027 21.5114 44.6228 21.589 44.492 21.7443C44.3693 21.8996 44.308 22.0917 44.308 22.3206V26.8696C44.3243 26.9922 44.3816 27.1312 44.4797 27.2865C44.5942 27.45 44.7823 27.5317 45.044 27.5317C45.3221 27.5317 45.5061 27.4581 45.5961 27.311C45.6861 27.1639 45.7392 27.0576 45.7556 26.9922C45.7719 26.9187 45.7801 26.8206 45.7801 26.6979V26.2811H46.9455L46.9456 26.5508Z" fill="white"/>
<path d="M47.335 28.623L49.1751 20.4078H50.1934L52.0336 28.623H50.77L50.4387 26.8574H48.9175L48.574 28.623H47.335ZM49.1261 25.7661H50.2302L49.6781 22.7743L49.1261 25.7661Z" fill="white"/>
<path d="M53.02 28.623V21.4991H51.6338V20.4078H55.5962V21.4991H54.1854V28.623H53.02Z" fill="white"/>
<path d="M56.2266 28.623V20.4078H57.392V28.623H56.2266Z" fill="white"/>
<path d="M58.8089 21.1803C58.997 20.9187 59.2341 20.7144 59.5204 20.5672C59.8148 20.4119 60.1174 20.3342 60.4282 20.3342C60.7308 20.3342 61.0129 20.3956 61.2746 20.5182C61.5445 20.6408 61.7694 20.8084 61.9494 21.0209C62.1293 21.2334 62.252 21.4541 62.3174 21.683C62.3828 21.9037 62.4156 22.1449 62.4156 22.4064V26.5876C62.4156 26.8328 62.391 27.0494 62.342 27.2374C62.3011 27.4255 62.2029 27.6339 62.0475 27.8628C61.9003 28.0917 61.6836 28.2879 61.3974 28.4513C61.1193 28.6148 60.8085 28.6966 60.465 28.6966C60.2687 28.6966 60.0806 28.672 59.9007 28.623C59.7208 28.5658 59.5531 28.4922 59.3977 28.4023C59.2423 28.3124 59.1033 28.2102 58.9806 28.0957C58.8661 27.9813 58.7762 27.8628 58.7107 27.7402C58.588 27.4868 58.5144 27.2824 58.4899 27.1271C58.4654 26.9718 58.4531 26.792 58.4531 26.5876V22.4064C58.4531 22.1612 58.4777 21.9446 58.5267 21.7566C58.584 21.5604 58.678 21.3683 58.8089 21.1803ZM61.0907 21.8301C60.9353 21.6013 60.7226 21.4868 60.4528 21.4868C60.3137 21.4868 60.1747 21.5277 60.0356 21.6094C59.9048 21.683 59.8107 21.7688 59.7535 21.8669C59.7044 21.965 59.6717 22.0631 59.6553 22.1612C59.639 22.2593 59.6308 22.3411 59.6308 22.4064V26.5876C59.6308 26.6285 59.6308 26.6734 59.6308 26.7225C59.6308 26.7633 59.6349 26.8083 59.6431 26.8574C59.6513 26.9391 59.7167 27.074 59.8394 27.262C59.9621 27.4336 60.1665 27.5195 60.4528 27.5195C60.6 27.5195 60.7308 27.4868 60.8453 27.4214C60.968 27.3478 61.0539 27.2661 61.103 27.1761C61.1602 27.0781 61.197 26.9881 61.2134 26.9064C61.2297 26.8246 61.2379 26.7184 61.2379 26.5876V22.4064C61.2379 22.243 61.2297 22.1285 61.2134 22.0631C61.2052 21.9977 61.1643 21.9201 61.0907 21.8301H61.0907Z" fill="white"/>
<path d="M66.2829 28.623L64.455 23.6326V28.623H63.2773V20.4078H64.3937L66.2093 25.386V20.4078H67.387V28.623H66.2829Z" fill="white"/>
<path d="M16.1868 28.249V25.2564H10.5801V22.6158L14.6604 8.59129H17.6252L13.4275 22.6158H16.1868V17.0118H19.0049V22.6158H20.3846V25.2564H19.0049V28.249H16.1868Z" fill="white"/>
<path fill-rule="evenodd" clip-rule="evenodd" d="M74.7036 39.7217C73.7042 39.727 72.7038 40.2746 72.7038 41.3485V44.2761H76.7022V41.3485C76.7022 40.2543 75.7031 39.7166 74.7036 39.7217ZM72.7038 45.5347V74.7984L74.7036 81.3555L76.7022 74.7984V45.5347H72.7038ZM26.3208 42.7056V75.0652L43.4775 80.3537V52.6796L26.3208 42.7056ZM43.3325 84.0484L22.5664 78.1803V44.0586L24.3732 42.68V76.8481L43.7508 82.4986H45.3262L64.7039 76.8481V42.68L66.5107 44.0586V78.1803L45.7445 84.0484H43.3325ZM62.7563 42.7056V75.0652L45.5996 80.3537V52.6796L62.7563 42.7056Z" fill="white"/>
</svg>
